<?xml version="1.0" encoding="UTF-8"?> <svg xmlns="http://www.w3.org/2000/svg" xmlns:xlink="http://www.w3.org/1999/xlink" version="1.1" id="Layer_1" x="0px" y="0px" viewBox="0 0 100 100" style="enable-background:new 0 0 100 100;" xml:space="preserve"> <style type="text/css"> .st0{display:none;fill:#309244;} .st1{display:none;fill:#931B1E;} .st2{display:none;fill:#FFFFFF;} .st3{fill:#384EA1;} .st4{fill:#FDD21C;} .st5{fill:#EA3B26;} .st6{display:none;fill:#F7F6F1;} .st7{display:none;fill:#F6F4F6;} .st8{display:none;fill:#F8F8E9;} .st9{display:none;fill:#F8F6EA;} .st10{fill:#FAD220;} .st11{fill:#E53E2D;} .st12{display:none;fill:#F7F3EF;} .st13{fill:#E23E28;} .st14{display:none;fill:#FBF3F1;} .st15{display:none;fill:#F6F7F0;} .st16{display:none;fill:#FBF5D5;} .st17{display:none;fill:#F9E8E5;} .st18{fill:#E43E28;} .st19{display:none;fill:#FAECEB;} .st20{display:none;fill:#F5F6ED;} .st21{display:none;fill:#F7F4F5;} .st22{display:none;fill:#FAEFEE;} .st23{fill:#F6D13D;} .st24{fill:#B54135;} .st25{display:none;fill:#F7F7E9;} .st26{display:none;fill:#F5F8F2;} .st27{display:none;fill:#F7EDEB;} .st28{display:none;fill:#F4F7F5;} .st29{display:none;fill:#F6F5F1;} .st30{fill:#DB452A;} .st31{fill:#DB432C;} .st32{display:none;fill:#F3F8F4;} .st33{display:none;fill:#F9F1F4;} .st34{display:none;fill:#F9EBE7;} .st35{fill:#E13F28;} .st36{display:none;fill:#F6F6F2;} .st37{fill:#DF422C;} .st38{fill:#DD432C;} .st39{display:none;fill:#F5F7F2;} .st40{display:none;fill:#F6F5DC;} .st41{display:none;fill:#F9E9E5;} .st42{display:none;fill:#F7ECEC;} .st43{display:none;fill:#F6F4E1;} .st44{fill:#E2412A;} .st45{fill:#F4D53C;} .st46{fill:#F8D138;} .st47{display:none;fill:#F3F8F3;} .st48{fill:#D94831;} .st49{display:none;fill:#F4F8F3;} .st50{display:none;fill:#F7E7E6;} .st51{display:none;fill:#F8F4D7;} .st52{display:none;fill:#F6F7F1;} .st53{fill:#F9D327;} .st54{display:none;fill:#F8F4F7;} .st55{display:none;fill:#F1F8F5;} .st56{fill:#FAD03F;} .st57{display:none;fill:#F9E5E4;} .st58{display:none;fill:#F9E5E3;} .st59{display:none;fill:#F7E2E3;} .st60{fill:#F3D23F;} .st61{display:none;fill:#F7F6EA;} .st62{display:none;fill:#F7F3F9;} .st63{display:none;fill:#F5F9F2;} .st64{display:none;fill:#F8EFD8;} .st65{display:none;fill:#F7F1D2;} .st66{fill:#CF472E;} .st67{display:none;fill:#F6F4D7;} .st68{fill:#E4422F;} .st69{display:none;fill:#F6EEED;} .st70{display:none;fill:#F5F6E0;} .st71{display:none;fill:#F8F4C4;} .st72{fill:#CB452E;} .st73{display:none;fill:#F8F4DA;} .st74{display:none;fill:#F7F5E4;} .st75{display:none;fill:#F1D5CC;} .st76{display:none;fill:#F6F5DE;} .st77{display:none;fill:#F6F4D9;} .st78{fill:#F6D43A;} .st79{fill:#CB462C;} .st80{fill:#DC4631;} .st81{display:none;fill:#F3F9EE;} .st82{fill:#E4402E;} .st83{display:none;fill:#FDF3F7;} .st84{display:none;fill:#F6E3E3;} .st85{display:none;fill:#F8F7D8;} .st86{display:none;fill:#F7E8E6;} .st87{display:none;fill:#F5F1C5;} .st88{fill:#F2D743;} .st89{display:none;fill:#F7F4E2;} .st90{fill:#D94935;} .st91{fill:#F8D141;} .st92{fill:#D33F2C;} .st93{display:none;fill:#F8ECE1;} .st94{display:none;fill:#FAE9E6;} .st95{fill:#F7CB51;} .st96{fill:#D46250;} .st97{fill:#DF422D;} .st98{fill:#F6D042;} .st99{fill:#D53B27;} .st100{display:none;fill:#F2F8F1;} .st101{display:none;fill:#F1F7F3;} .st102{display:none;fill:#F8F5D7;} .st103{display:none;fill:#F8F2DB;} .st104{display:none;fill:#F7F0F1;} .st105{display:none;fill:#FAF1F6;} .st106{display:none;fill:#F5F8F0;} .st107{display:none;fill:#F7E4DE;} .st108{display:none;fill:#F9F5D7;} .st109{display:none;fill:#F6ECEC;} .st110{fill:#F5D25D;} .st111{display:none;fill:#F8F1CC;} .st112{display:none;fill:#F8F5DF;} .st113{display:none;fill:#F4F5EE;} .st114{fill:#F5D85F;} .st115{display:none;fill:#F7E6E3;} .st116{display:none;fill:#F4F8EE;} .st117{display:none;fill:#F5F9EB;} .st118{display:none;fill:#FAF2E6;} .st119{display:none;fill:#FCF6D8;} .st120{display:none;fill:#F6F7D8;} .st121{display:none;fill:#FCF1F1;} .st122{display:none;fill:#F4F9F0;} .st123{display:none;fill:#F4F9EE;} .st124{display:none;fill:#F8E5E5;} .st125{display:none;fill:#FBE8E4;} .st126{display:none;fill:#F3F3D9;} .st127{display:none;fill:#F6F5DB;} .st128{display:none;fill:#F5EFED;} .st129{fill:#F0D649;} .st130{display:none;fill:#F7F1BD;} .st131{fill:#B8422F;} .st132{display:none;fill:#F2F7EC;} .st133{fill:#F2D757;} .st134{fill:#FDCF1F;} .st135{fill:#FDCE23;} .st136{fill:#FCCD22;} .st137{fill:#FCCB22;} .st138{fill:#FCCC22;} .st139{fill:#FDCF20;} .st140{fill:#FEC827;} .st141{fill:#FCCA24;} .st142{fill:#FCC829;} .st143{fill:#FDC72C;} .st144{fill:#FDCB26;} .st145{fill:#FAD318;} .st146{fill:#FCD02C;} .st147{fill:#FCC925;} .st148{fill:#FBC132;} .st149{fill:#FBC42D;} .st150{fill:#FDC531;} .st151{fill:#FCCA26;} .st152{fill:#FDCA27;} .st153{fill:#FAC229;} .st154{fill:#FBC827;} .st155{fill:#F7DD6F;} .st156{fill:#FCD21F;} .st157{fill:#FBC232;} .st158{fill:#FDCD24;} .st159{fill:#FECE22;} .st160{fill:#FAD215;} .st161{fill:#FAC030;} .st162{fill:#FEC42E;} .st163{fill:#F8D120;} .st164{fill:#FCCD21;} .st165{fill:#D74E27;} .st166{fill:#F8D516;} .st167{fill:#FECA2F;} .st168{fill:#FCBE31;} .st169{fill:#FCD31E;} .st170{fill:#FDC92A;} .st171{fill:#FCCC21;} .st172{fill:#F9D326;} .st173{fill:#FEBF41;} .st174{fill:#D55627;} .st175{fill:#F6C428;} .st176{fill:#FBD318;} .st177{fill:#DC4B26;} .st178{fill:#FCD02E;} .st179{fill:#DE5427;} .st180{fill:#F3D521;} .st181{fill:#FAD219;} .st182{fill:#F9D21E;} .st183{fill:#FDC72A;} .st184{fill:#F8D41B;} .st185{fill:#FDC92B;} .st186{fill:#CC5127;} .st187{fill:#C36B29;} .st188{fill:#DB5126;} .st189{fill:#B75427;} .st190{fill:#F8D523;} .st191{fill:#FAD418;} .st192{fill:#FBD21C;} .st193{fill:#FAC430;} .st194{fill:#EDB820;} .st195{fill:#F6D323;} .st196{fill:#C45428;} .st197{fill:#F9D513;} .st198{fill:#EDBB20;} .st199{fill:#FFCE3F;} .st200{fill:#CD8B2A;} .st201{fill:#F9D142;} .st202{fill:#F7D613;} .st203{fill:#F9D416;} .st204{fill:#D57327;} .st205{fill:#E05B27;} .st206{fill:#F1DB6E;} .st207{fill:#E69926;} .st208{fill:#F8CF52;} .st209{fill:#F6CD46;} .st210{fill:#F9D351;} .st211{fill:#F9D515;} .st212{fill:#FDCE1F;} .st213{fill:#FACE48;} .st214{fill:#F6D55A;} .st215{fill:#F2D752;} .st216{fill:#F3D561;} .st217{fill:#F4EB9E;} .st218{fill:#F5D340;} .st219{fill:#EA9E26;} .st220{fill:#E3B224;} .st221{fill:#F1D541;} .st222{fill:#F6D246;} .st223{fill:#F6F1C6;} .st224{fill:#B7802C;} .st225{fill:#CB5F28;} .st226{fill:#E54226;} .st227{fill:#E49C25;} .st228{fill:#BF732A;} .st229{fill:#E63F26;} .st230{fill:#E73F26;} .st231{fill:#EB3A27;} .st232{fill:#E44126;} .st233{fill:#E63E26;} .st234{fill:#E24226;} .st235{fill:#E14226;} .st236{fill:#E83F28;} .st237{fill:#DE4826;} .st238{fill:#E14326;} .st239{fill:#D94B27;} .st240{fill:#E53D2A;} .st241{fill:#DF4226;} .st242{fill:#E44426;} .st243{fill:#EA3A27;} .st244{fill:#DC4626;} .st245{fill:#E1412F;} .st246{fill:#E63E28;} .st247{fill:#E04326;} .st248{fill:#ED3B26;} .st249{fill:#E04426;} .st250{fill:#E64026;} .st251{fill:#E43D2C;} .st252{fill:#E24026;} .st253{fill:#E04526;} .st254{fill:#E34426;} .st255{fill:#EA3B28;} .st256{fill:#E34726;} .st257{fill:#E34226;} .st258{fill:#E93C2A;} .st259{fill:#DF402B;} .st260{fill:#E63D27;} .st261{fill:#E34125;} .st262{fill:#E63C2B;} .st263{fill:#E1402E;} .st264{fill:#E23F29;} .st265{fill:#FBC131;} .st266{fill:#DA4927;} .st267{fill:#D53A28;} .st268{fill:#F4AC3D;} .st269{fill:#EA3A28;} .st270{fill:#EB3A28;} .st271{fill:#E04826;} .st272{fill:#E4402F;} .st273{fill:#C74E27;} .st274{fill:#D74230;} .st275{fill:#E73C2C;} .st276{fill:#B84231;} .st277{fill:#ED3A28;} .st278{fill:#DC432C;} .st279{fill:#ED3C2A;} .st280{fill:#DB442B;} .st281{fill:#ED3A2B;} .st282{fill:#E24327;} .st283{fill:#EE3B24;} .st284{fill:#E04128;} .st285{fill:#ED3B28;} .st286{fill:#EB3B28;} .st287{fill:#CF4C27;} .st288{fill:#E73E2A;} .st289{fill:#EB3B2A;} .st290{fill:#EB3A2A;} .st291{fill:#F5A640;} .st292{fill:#BC5727;} .st293{fill:#ED3A2C;} .st294{fill:#C64E27;} .st295{fill:#C14627;} .st296{fill:#D9432C;} .st297{fill:#DC402B;} .st298{fill:#BD4B27;} .st299{fill:#BD5127;} .st300{fill:#E53F26;} .st301{fill:#E43E26;} .st302{fill:#C44B27;} .st303{fill:#C14F27;} .st304{fill:#BE4F27;} .st305{fill:#DA432D;} .st306{fill:#EB3A29;} .st307{fill:#D04928;} .st308{fill:#C14A27;} .st309{fill:#ED3A2A;} .st310{fill:#E93B29;} .st311{fill:#EB3C2D;} .st312{fill:#E93C30;} .st313{fill:#E43F26;} .st314{fill:#ED3928;} .st315{fill:#EE3B29;} .st316{fill:#EA392D;} .st317{fill:#C45127;} .st318{fill:#E0402A;} .st319{fill:#EB3A2B;} .st320{fill:#F7AC46;} .st321{fill:#C25628;} .st322{fill:#F3753E;} .st323{fill:#D33B27;} .st324{fill:#D9452E;} .st325{fill:#C64F28;} .st326{fill:#C45528;} .st327{fill:#D74133;} .st328{fill:#C75128;} .st329{fill:#D95128;} .st330{fill:#E83A2C;} .st331{fill:#DD4326;} .st332{fill:#EE3A2C;} .st333{fill:#F37345;} .st334{fill:#BD5827;} .st335{fill:#F1AB35;} .st336{fill:#BA5827;} .st337{fill:#F3AB3B;} .st338{fill:#D74333;} .st339{fill:#EB3829;} .st340{fill:#E03F2C;} .st341{fill:#EA9D3D;} .st342{fill:#C74F27;} .st343{fill:#CD4C28;} .st344{fill:#E33F26;} .st345{fill:#C94627;} .st346{fill:#EE382D;} .st347{fill:#EB392C;} .st348{fill:#EE392B;} .st349{fill:#C74927;} .st350{fill:#E73C30;} .st351{fill:#BC5E28;} .st352{fill:#EC3A29;} .st353{fill:#EB3B29;} .st354{fill:#F9A257;} .st355{fill:#FCB550;} .st356{fill:#D64927;} .st357{fill:#F15A3B;} .st358{fill:#ED3929;} .st359{fill:#D24327;} .st360{fill:#E53F31;} .st361{fill:#F47F55;} .st362{fill:#C14527;} .st363{fill:#D84427;} .st364{fill:#F36E46;} .st365{fill:#BF4627;} .st366{fill:#DD422C;} .st367{fill:#C06C29;} .st368{fill:#F2A74B;} .st369{fill:#F68C50;} .st370{fill:#E13F26;} .st371{fill:#ED392D;} .st372{fill:#E9392E;} .st373{fill:#EA3D2A;} .st374{fill:#CD3B27;} .st375{fill:#EF392A;} .st376{fill:#E24031;} .st377{fill:#EE392F;} .st378{fill:#EF3930;} .st379{fill:#F1722A;} .st380{fill:#F58F33;} .st381{fill:#F26744;} .st382{fill:#DE462F;} .st383{fill:#F26B48;} .st384{fill:#EF452E;} .st385{fill:#B95A27;} .st386{fill:#F7965A;} .st387{fill:#F4784E;} .st388{fill:#DB4939;} .st389{fill:#F47D44;} .st390{fill:#FAA53E;} .st391{fill:#B74627;} .st392{fill:#EA3A2D;} .st393{fill:#E03D2E;} .st394{fill:#CD3A2B;} .st395{display:none;fill:#F6F4EA;} .st396{display:none;fill:#F4F4C3;} .st397{display:none;fill:#F6EDBC;} .st398{fill:#F3EBA2;} .st399{fill:#CD4B30;} .st400{fill:#EC3B25;} .st401{fill:#BB472A;} .st402{fill:#DA4331;} .st403{display:none;fill:#F6F6F6;} .st404{fill:#FCC52E;} .st405{fill:#F7B631;} .st406{fill:#BB6628;} .st407{fill:#EDBD1F;} .st408{fill:#C78B2B;} .st409{fill:#D16A2D;} .st410{fill:#D7792B;} .st411{fill:#FABF31;} .st412{fill:#E14B27;} .st413{fill:#D65627;} .st414{fill:#C05928;} .st415{fill:#B56528;} .st416{fill:#D23B27;} .st417{fill:#CE6329;} .st418{fill:#D85427;} .st419{fill:#C68F2C;} .st420{fill:#D18E2A;} .st421{fill:#C47A2A;} .st422{fill:#D94F27;} .st423{fill:#FCC331;} .st424{fill:#FEC234;} .st425{fill:#E29E26;} .st426{fill:#C35127;} .st427{fill:#FDBB4B;} .st428{fill:#BD7429;} .st429{fill:#B75527;} .st430{fill:#D0672A;} .st431{fill:#CF5228;} .st432{fill:#FCB939;} .st433{fill:#B45C27;} .st434{fill:#D66627;} .st435{fill:#D24C27;} .st436{fill:#CB4927;} .st437{fill:#DE8827;} .st438{fill:#EFB91E;} .st439{fill:#FCB73D;} .st440{fill:#F6B638;} .st441{fill:#C86028;} .st442{fill:#B26027;} .st443{fill:#BC5527;} .st444{fill:#CF5828;} .st445{fill:#D25027;} .st446{fill:#F8B239;} .st447{fill:#C65929;} .st448{fill:#DA7427;} .st449{fill:#FBC22E;} .st450{fill:#D05929;} .st451{fill:#E9B321;} .st452{fill:#F9BA35;} .st453{fill:#D34E27;} .st454{fill:#E65A25;} .st455{fill:#D03B27;} .st456{fill:#DD4B27;} .st457{fill:#CB5028;} .st458{fill:#F9A24B;} .st459{fill:#F9A14B;} .st460{fill:#BF5127;} .st461{fill:#FCB44D;} .st462{fill:#FFC62D;} .st463{fill:#D26628;} .st464{fill:#DB4526;} .st465{fill:#FDBC3E;} .st466{fill:#BE5527;} .st467{fill:#C54C27;} .st468{fill:#C68D2C;} .st469{fill:#BE5A27;} .st470{fill:#B35D27;} .st471{fill:#BC7F2B;} .st472{fill:#F5AE3A;} .st473{fill:#D45427;} .st474{fill:#D94727;} .st475{fill:#BF6028;} .st476{fill:#BD4C27;} .st477{fill:#FFC734;} .st478{fill:#FCC42E;} .st479{fill:#F4D147;} .st480{fill:#BF5928;} .st481{fill:#DD4D26;} .st482{fill:#BE4527;} .st483{fill:#E04626;} .st484{fill:#FBBE33;} .st485{fill:#C24C27;} .st486{fill:#D84627;} .st487{fill:#A95526;} .st488{fill:#FABE33;} .st489{fill:#D7632A;} .st490{fill:#BC6628;} .st491{fill:#B65D27;} .st492{fill:#D35E28;} .st493{fill:#FBB13D;} .st494{fill:#D94D27;} .st495{fill:#C75027;} .st496{fill:#E05027;} .st497{fill:#D05327;} .st498{fill:#FABE2F;} .st499{fill:#F2B12C;} .st500{fill:#FCB840;} .st501{fill:#FFC737;} .st502{fill:#D98E28;} .st503{fill:#D63B27;} .st504{fill:#FDBA47;} .st505{fill:#D65428;} .st506{fill:#B86B29;} .st507{fill:#C87428;} .st508{fill:#D25427;} .st509{fill:#FABE34;} .st510{fill:#C54E27;} .st511{fill:#C94827;} .st512{fill:#FBAE5B;} .st513{fill:#C24F27;} .st514{fill:#BB732A;} .st515{fill:#D39E2A;} .st516{fill:#BA5127;} .st517{fill:#D34A27;} .st518{fill:#C64B27;} .st519{fill:#E59D25;} .st520{fill:#E24526;} .st521{fill:#BD4627;} .st522{fill:#E93A26;} .st523{fill:#D95427;} .st524{fill:#BC6E28;} .st525{fill:#B95C27;} .st526{fill:#EF3A2B;} .st527{fill:#D13D27;} .st528{fill:#CC4727;} .st529{fill:#C64927;} .st530{fill:#F9A558;} .st531{fill:#EF6B29;} .st532{fill:#EB9E3E;} .st533{fill:#CD4627;} .st534{fill:#B74D26;} .st535{fill:#F39747;} .st536{fill:#F89E5F;} .st537{fill:#E99736;} .st538{fill:#D83927;} .st539{fill:#C05528;} .st540{fill:#FCB649;} .st541{fill:#EC9238;} .st542{fill:#D83627;} .st543{fill:#DD6729;} .st544{fill:#F68E51;} .st545{fill:#D64127;} .st546{fill:#BA4E27;} .st547{fill:#ED9C42;} .st548{fill:#D43E27;} .st549{fill:#DA4327;} .st550{fill:#BC5627;} .st551{fill:#F0A437;} .st552{fill:#B95C28;} .st553{fill:#F2A834;} .st554{fill:#BF5027;} .st555{fill:#FCB545;} .st556{fill:#F79642;} .st557{fill:#F26A3C;} .st558{fill:#EF4731;} .st559{fill:#F9A742;} .st560{fill:#F8B835;} .st561{fill:#B95327;} .st562{fill:#BF5628;} .st563{fill:#C66A29;} .st564{fill:#BF5227;} .st565{fill:#D94927;} .st566{fill:#BD5C28;} .st567{fill:#CF3A27;} .st568{fill:#F27B44;} .st569{fill:#FBAF49;} .st570{fill:#F29546;} .st571{fill:#FCB63F;} .st572{fill:#CF3927;} .st573{fill:#BA5927;} .st574{fill:#D33827;} .st575{fill:#BB5327;} .st576{fill:#F5A63B;} .st577{fill:#D33A27;} .st578{fill:#D87232;} .st579{fill:#F4753B;} .st580{fill:#FAA958;} .st581{fill:#F4B138;} .st582{fill:#F9A35E;} .st583{fill:#F2AD2F;} .st584{fill:#F47839;} .st585{fill:#EC993B;} .st586{fill:#FAA74D;} .st587{fill:#F9A04D;} .st588{fill:#F7955A;} .st589{fill:#F89C4C;} .st590{fill:#E55825;} .st591{fill:#E75825;} .st592{fill:#D55128;} .st593{fill:#F7924C;} .st594{fill:#F68D49;} .st595{fill:#F89951;} .st596{fill:#CB4B27;} .st597{fill:#CD5928;} .st598{fill:#BF5727;} .st599{fill:#EF9D44;} .st600{fill:#BC5227;} .st601{fill:#FAB536;} .st602{fill:#F5B221;} .st603{fill:#CD4527;} .st604{fill:#BF5828;} .st605{fill:#F89E57;} .st606{opacity:0.999;fill-rule:evenodd;clip-rule:evenodd;fill:#0A79BD;enable-background:new ;} .st607{fill-rule:evenodd;clip-rule:evenodd;fill:#FFFFFF;} .st608{fill-rule:evenodd;clip-rule:evenodd;fill:#BCDCEC;} .st609{fill-rule:evenodd;clip-rule:evenodd;fill:#56A6D4;} .st610{fill-rule:evenodd;clip-rule:evenodd;fill:#0779BE;} .st611{opacity:0.992;fill-rule:evenodd;clip-rule:evenodd;fill:#201E1F;enable-background:new ;} .st612{opacity:0.994;fill-rule:evenodd;clip-rule:evenodd;fill:#201E1F;enable-background:new ;} .st613{opacity:0.993;fill-rule:evenodd;clip-rule:evenodd;fill:#201E1F;enable-background:new ;} .st614{opacity:0.99;fill-rule:evenodd;clip-rule:evenodd;fill:#201E1F;enable-background:new ;} .st615{opacity:0.996;fill-rule:evenodd;clip-rule:evenodd;fill:#201E1F;enable-background:new ;} .st616{opacity:0.986;fill-rule:evenodd;clip-rule:evenodd;fill:#201E1F;enable-background:new ;} .st617{opacity:0.991;fill-rule:evenodd;clip-rule:evenodd;fill:#201E1F;enable-background:new ;} .st618{opacity:0.989;fill-rule:evenodd;clip-rule:evenodd;fill:#201E1F;enable-background:new ;} .st619{opacity:0.966;fill-rule:evenodd;clip-rule:evenodd;fill:#201E1F;enable-background:new ;} .st620{opacity:0.988;fill-rule:evenodd;clip-rule:evenodd;fill:#201E1F;enable-background:new ;} .st621{opacity:0.987;fill-rule:evenodd;clip-rule:evenodd;fill:#201E1F;enable-background:new ;} .st622{opacity:0.959;fill-rule:evenodd;clip-rule:evenodd;fill:#201E1F;enable-background:new ;} </style> <rect x="1.01" y="14.79" class="st0" width="96.23" height="69.86"></rect> <g> <g> <path class="st606" d="M45.78,16.52c3.27-0.01,6.53,0,9.8,0.04c4.17,0.36,7.77,2.04,10.8,5.02c3.16,3.3,4.76,7.3,4.81,12.01 c-0.04,3.38-1,6.45-2.86,9.19c-2.61,3.73-6.07,6.14-10.39,7.23c-0.9,0.21-1.82,0.34-2.74,0.39c-3.15,0.02-6.3,0.02-9.45,0 c-4.48-0.33-8.23-2.21-11.26-5.64c-3.19-3.83-4.52-8.28-3.99-13.37c0.5-4.41,2.35-8.06,5.52-10.95 C38.87,18.05,42.12,16.74,45.78,16.52z"></path> </g> <g> <path class="st607" d="M45.93,17.93c4.72-0.15,8.67,1.58,11.86,5.21c2.53,3.08,3.77,6.64,3.73,10.69 c-0.2,4.55-1.9,8.33-5.11,11.35c-2.97,2.62-6.4,3.88-10.29,3.78c-4.74-0.32-8.53-2.46-11.37-6.41c-2.55-3.85-3.36-8.07-2.42-12.66 c1.02-4.25,3.31-7.51,6.85-9.8C41.26,18.81,43.52,18.09,45.93,17.93z"></path> </g> <g> <path class="st608" d="M43.36,24.26c0.03,6.12,0.03,12.24,0,18.36c-0.02,0-0.02-0.01-0.02-0.03 C43.36,36.49,43.37,30.38,43.36,24.26z"></path> </g> <g> <path class="st609" d="M50.12,24.29c-0.02,6.1-0.03,12.2-0.02,18.31c-0.02-3.03-0.02-6.08-0.02-9.16 c0.01-3.06,0.02-6.12,0.02-9.18C50.11,24.27,50.12,24.27,50.12,24.29z"></path> </g> <g> <path class="st610" d="M43.36,24.26c0.01,6.12,0,12.23-0.02,18.34c-2.58-1.1-4.38-3.01-5.4-5.73c-1.01-3.09-0.71-6.02,0.92-8.79 C39.99,26.32,41.49,25.05,43.36,24.26z"></path> </g> <g> <path class="st610" d="M50.12,24.29c2.34,0.98,4.04,2.66,5.12,5.05c1.17,2.8,1.14,5.59-0.07,8.37c-1.1,2.31-2.79,3.94-5.08,4.89 C50.09,36.49,50.1,30.39,50.12,24.29z"></path> </g> <g> <path class="st611" d="M71.32,52.85c0.15-0.02,0.22,0.05,0.21,0.21c0.01,4.19,0.02,8.39,0.02,12.58c0.08,0.25,0.25,0.37,0.51,0.35 c0.2,0.01,0.4,0.02,0.6,0.01c0,0.16,0,0.31,0,0.47c-1.21-0.03-2.43-0.03-3.64,0c0-0.16,0-0.31,0-0.47c0.21,0,0.42,0,0.62-0.01 c0.26,0.01,0.42-0.12,0.49-0.38c0.02-3.52,0.02-7.05,0-10.57c0-0.29-0.1-0.53-0.31-0.72c-0.18-0.09-0.36-0.16-0.55-0.21 c-0.03-0.1-0.03-0.2-0.01-0.3C69.98,53.57,70.67,53.25,71.32,52.85z"></path> </g> <g> <path class="st612" d="M83.12,52.85c0.09-0.02,0.15,0.01,0.19,0.1c0.01,2.21,0.02,4.43,0.02,6.64c0.49-0.48,1.04-0.85,1.66-1.11 c1.44-0.4,2.58,0.04,3.43,1.32c0.62,1.14,0.77,2.34,0.42,3.61c-0.35,1.31-1.09,2.3-2.23,2.94c-0.99,0.45-1.98,0.52-2.99,0.21 c-0.35-0.12-0.69-0.26-1.02-0.43c-0.17,0.14-0.35,0.27-0.52,0.39c-0.11-0.06-0.23-0.12-0.34-0.18c0.09-0.83,0.16-1.65,0.2-2.49 c0.02-2.92,0.02-5.84,0-8.76c-0.01-0.21-0.06-0.41-0.15-0.6c-0.19-0.21-0.43-0.34-0.71-0.38c-0.02-0.11-0.03-0.22-0.02-0.33 C81.78,53.57,82.47,53.26,83.12,52.85z M84.69,59.31c0.57-0.04,1.09,0.12,1.55,0.48c1.02,0.89,1.48,2.04,1.38,3.44 c-0.06,1-0.43,1.84-1.11,2.52c-0.68,0.54-1.42,0.64-2.22,0.31c-0.56-0.36-0.88-0.89-0.96-1.58c-0.02-1.45-0.02-2.89,0-4.34 C83.71,59.74,84.16,59.46,84.69,59.31z"></path> </g> <g> <path class="st613" d="M64.19,53.74c0.99,0.03,1.97,0.22,2.94,0.56c0.37,0.13,0.73,0.26,1.1,0.39c0.08,0.86,0.15,1.72,0.2,2.58 c-0.15,0-0.3,0-0.45,0c-0.27-1.66-1.2-2.62-2.79-2.86c-1.68-0.24-3.11,0.26-4.3,1.5c-0.75,0.92-1.18,2-1.27,3.22 c-0.21,1.96,0.28,3.71,1.45,5.23c0.76,0.92,1.71,1.5,2.86,1.74c1.53,0.25,2.73-0.28,3.6-1.61c0.24-0.44,0.42-0.91,0.54-1.41 c0.11,0.03,0.21,0.07,0.32,0.09c0.03,0.03,0.05,0.06,0.05,0.1c-0.12,0.85-0.25,1.7-0.4,2.55c-0.79,0.39-1.61,0.66-2.47,0.8 c-1.36,0.25-2.7,0.13-4.02-0.37c-1.93-0.82-3.12-2.3-3.58-4.43c-0.59-2.91,0.26-5.22,2.56-6.92 C61.64,54.16,62.86,53.77,64.19,53.74z"></path> </g> <g> <path class="st614" d="M24.09,53.82c0.55,0.01,0.87,0.3,0.95,0.88c-0.05,0.54-0.34,0.84-0.85,0.9c-0.5-0.07-0.78-0.37-0.85-0.89 C23.39,54.23,23.64,53.93,24.09,53.82z"></path> </g> <g> <path class="st615" d="M10.02,54.03c1.45,0.03,2.9,0.03,4.35,0c1.5-0.11,2.93,0.18,4.28,0.88c1.99,1.18,3.04,2.97,3.14,5.38 c-0.24,3.34-1.93,5.35-5.06,6.03c-0.78,0.15-1.57,0.2-2.36,0.17c-1.45-0.03-2.9-0.03-4.35,0c0-0.16,0-0.31,0-0.47 c0.27-0.03,0.53-0.07,0.8-0.12c0.36-0.08,0.59-0.3,0.69-0.67c0.04-0.17,0.07-0.35,0.07-0.52c0.02-2.95,0.02-5.89,0-8.84 c0-0.33-0.07-0.65-0.22-0.94c-0.17-0.22-0.39-0.35-0.66-0.38c-0.23-0.02-0.46-0.03-0.67-0.04C10.02,54.34,10.02,54.19,10.02,54.03 z M14.41,54.61c1.02-0.03,2,0.21,2.94,0.72c1.15,0.7,1.91,1.73,2.28,3.07c0.4,1.58,0.33,3.13-0.22,4.66 c-0.73,1.7-1.98,2.63-3.75,2.81c-0.51,0.07-1.02,0.04-1.52-0.08c-0.46-0.16-0.74-0.5-0.84-1.01c-0.04-3.37-0.05-6.73-0.04-10.1 C13.65,54.66,14.03,54.63,14.41,54.61z"></path> </g> <g> <path class="st616" d="M24.63,58.32c0.15-0.03,0.22,0.03,0.24,0.18c0.01,2.38,0.02,4.76,0.02,7.14c0.05,0.18,0.16,0.29,0.34,0.33 c0.26,0.03,0.51,0.05,0.77,0.04c0,0.16,0,0.31,0,0.47c-1.22-0.03-2.43-0.03-3.64,0c0-0.16,0-0.31,0-0.47 c0.27,0.01,0.53,0,0.8-0.04c0.17-0.04,0.27-0.15,0.31-0.33c0.02-1.79,0.02-3.58,0-5.36c-0.03-0.26-0.14-0.46-0.34-0.61 c-0.16-0.11-0.33-0.21-0.5-0.3c-0.03-0.1-0.03-0.21,0-0.31C23.32,58.84,23.98,58.6,24.63,58.32z"></path> </g> <g> <path class="st614" d="M28.85,58.32c0.05-0.01,0.08,0.01,0.11,0.05c0.01,0.08,0.02,0.15,0.04,0.22c-0.01,0.35-0.01,0.69,0,1.03 c0.49-0.39,1.01-0.72,1.57-1.01c0.68-0.32,1.38-0.38,2.09-0.18c0.57,0.24,0.93,0.67,1.08,1.29c0.07,0.27,0.11,0.55,0.12,0.84 c0.01,1.68,0.02,3.37,0.02,5.05c0.05,0.19,0.16,0.31,0.34,0.35c0.26,0.03,0.53,0.05,0.8,0.04c0,0.16,0,0.31,0,0.47 c-1.22-0.03-2.44-0.03-3.67,0c0-0.16,0-0.31,0-0.47c0.27,0.01,0.53,0,0.8-0.04c0.17-0.04,0.27-0.15,0.31-0.33 c0.02-1.71,0.02-3.42,0-5.13c-0.12-0.71-0.52-1.11-1.21-1.19c-0.23-0.02-0.45-0.01-0.67,0.03c-0.59,0.18-1.13,0.45-1.62,0.82 c0,1.74,0,3.48,0,5.22c-0.01,0.4,0.17,0.6,0.55,0.6c0.21,0.01,0.42,0.02,0.62,0.01c0,0.16,0,0.31,0,0.47 c-1.23-0.03-2.45-0.03-3.67,0c0-0.16,0-0.31,0-0.47c0.21,0,0.42,0,0.62-0.01c0.26,0.01,0.42-0.12,0.49-0.38 c0.02-1.74,0.02-3.47,0-5.21c-0.05-0.29-0.21-0.51-0.46-0.64c-0.16-0.07-0.32-0.15-0.47-0.22c-0.03-0.12-0.03-0.24-0.01-0.37 C27.4,58.94,28.13,58.65,28.85,58.32z"></path> </g> <g> <path class="st612" d="M38.15,58.32c0.88-0.05,1.65,0.21,2.32,0.8c0.61,0.64,0.87,1.41,0.79,2.32c-0.04,0.05-0.08,0.09-0.14,0.12 c-1.6,0-3.19,0.02-4.79,0.04c-0.11,0.97,0.06,1.88,0.49,2.75c0.71,1.22,1.72,1.59,3.01,1.11c0.48-0.25,0.91-0.57,1.28-0.98 c0.09,0.08,0.17,0.18,0.24,0.27c-0.47,0.74-1.09,1.32-1.85,1.73c-0.87,0.39-1.74,0.4-2.62,0.03c-0.72-0.38-1.24-0.96-1.56-1.74 c-0.42-1.16-0.48-2.35-0.17-3.56C35.59,59.59,36.59,58.63,38.15,58.32z M38.03,58.92c1.1-0.08,1.69,0.46,1.77,1.61 c-0.01,0.29-0.15,0.44-0.42,0.44c-1,0.01-2,0.02-2.99,0.01c0.08-0.75,0.41-1.34,0.97-1.79C37.57,59.07,37.79,58.97,38.03,58.92z"></path> </g> <g> <path class="st613" d="M44.06,58.32c0.12-0.02,0.19,0.03,0.21,0.16c0.01,0.56,0.02,1.12,0.02,1.67c0.3-0.55,0.69-1.04,1.16-1.45 c0.44-0.35,0.92-0.45,1.45-0.29c0.49,0.27,0.65,0.68,0.49,1.24c-0.24,0.5-0.61,0.65-1.11,0.46c-0.44-0.42-0.91-0.45-1.4-0.08 c-0.29,0.23-0.48,0.53-0.56,0.9c-0.03,0.8-0.04,1.6-0.04,2.39c0,0.72,0.01,1.44,0.01,2.16c-0.01,0.26,0.1,0.42,0.34,0.48 c0.47,0.04,0.95,0.05,1.42,0.04c0,0.16,0,0.31,0,0.47c-1.47-0.03-2.94-0.03-4.41,0c0-0.16,0-0.31,0-0.47 c0.32,0.01,0.63,0,0.95-0.04c0.19-0.05,0.29-0.18,0.31-0.38c0.02-1.76,0.02-3.52,0-5.28c-0.03-0.16-0.11-0.29-0.24-0.38 c-0.2-0.11-0.4-0.21-0.61-0.3c-0.02-0.1-0.02-0.19,0-0.29C42.73,59.02,43.4,58.68,44.06,58.32z"></path> </g> <g> <path class="st611" d="M50.32,58.32c0.79-0.03,1.54,0.14,2.24,0.51c0.06,0.61,0.11,1.23,0.15,1.84c-0.14,0-0.28,0-0.42,0 c-0.19-1.26-0.88-1.84-2.09-1.74c-0.88,0.2-1.2,0.75-0.96,1.66c0.08,0.18,0.2,0.34,0.34,0.48c0.15,0.12,0.31,0.23,0.47,0.34 c0.4,0.21,0.81,0.4,1.22,0.58c0.46,0.2,0.87,0.48,1.25,0.81c0.54,0.64,0.69,1.38,0.46,2.21c-0.3,0.83-0.87,1.35-1.68,1.58 c-1.12,0.31-2.2,0.16-3.23-0.46c-0.07-0.69-0.13-1.38-0.19-2.07c0.1-0.02,0.19-0.05,0.29-0.08c0.01,0.01,0.02,0.02,0.04,0.03 c0.13,0.67,0.43,1.24,0.9,1.71c0.55,0.41,1.16,0.53,1.82,0.34c0.6-0.26,0.85-0.72,0.76-1.4c-0.05-0.3-0.18-0.56-0.39-0.77 c-0.14-0.12-0.29-0.24-0.45-0.34c-0.59-0.29-1.17-0.6-1.75-0.92c-0.99-0.68-1.31-1.62-0.96-2.81c0.31-0.73,0.84-1.2,1.58-1.4 C49.92,58.39,50.12,58.35,50.32,58.32z"></path> </g> <g> <path class="st617" d="M74.69,58.58c0.1-0.01,0.2,0.01,0.3,0.04c0.04,0.08,0.06,0.16,0.06,0.25c0.01,1.8,0.02,3.59,0.02,5.39 c0.02,0.58,0.26,1.03,0.71,1.35c0.47,0.23,0.95,0.23,1.42,0c0.49-0.23,0.94-0.53,1.33-0.9c0.02-1.63,0.02-3.26,0-4.89 c-0.11-0.16-0.26-0.27-0.44-0.33c-0.32-0.12-0.64-0.22-0.97-0.3c0-0.11,0-0.23,0-0.34c0.88-0.07,1.76-0.16,2.64-0.26 c0.05,0,0.1,0.02,0.14,0.05c0.03,2.34,0.05,4.67,0.05,7.01c0.05,0.11,0.13,0.16,0.24,0.17c0.3,0.02,0.6,0.01,0.9-0.01 c0,0.14,0,0.28,0,0.42c-0.83,0.1-1.65,0.29-2.46,0.55c-0.02-0.02-0.04-0.04-0.06-0.05c-0.02-0.48-0.03-0.96-0.04-1.44 c-0.54,0.5-1.13,0.92-1.78,1.24c-0.67,0.28-1.33,0.3-2,0.08c-0.68-0.36-1.04-0.94-1.08-1.74c0-1.74-0.02-3.47-0.05-5.21 c-0.13-0.31-0.36-0.49-0.69-0.54c-0.1-0.02-0.2-0.03-0.3-0.04c0-0.12,0-0.24,0-0.37C73.33,58.68,74.01,58.64,74.69,58.58z"></path> </g> <g> <path class="st613" d="M27.03,70.01c0.11,0.01,0.21,0.02,0.31,0.05c-0.01,0.25-0.04,0.51-0.07,0.76c0,0.23-0.02,0.46-0.04,0.69 c0.01,0.01,0.02,0.02,0.02,0.03c-0.02,0.06-0.03,0.12-0.05,0.18c-0.11,0.05-0.23,0.09-0.35,0.12c0.01-0.25-0.03-0.48-0.14-0.71 c-0.09-0.13-0.21-0.21-0.36-0.22c-0.53-0.01-1.06-0.02-1.6-0.01c-0.01,1.82,0,3.65,0.04,5.47c0.05,0.23,0.19,0.37,0.41,0.41 c0.17,0.01,0.33,0.02,0.5,0.01c0,0.13,0,0.26,0,0.39c-1.06-0.03-2.11-0.03-3.17,0c0-0.13,0-0.26,0-0.39 c0.22,0.01,0.43,0,0.65-0.04c0.16-0.07,0.25-0.19,0.26-0.38c0.04-1.82,0.05-3.64,0.04-5.47c-0.62-0.01-1.25,0-1.87,0.04 c-0.08,0.02-0.15,0.06-0.21,0.12c-0.11,0.22-0.18,0.46-0.21,0.71c-0.12,0.03-0.25,0.03-0.37,0.03c0.09-0.58,0.15-1.16,0.17-1.75 c0.11,0,0.22,0,0.32,0c0.01,0.14,0.07,0.22,0.2,0.25c1.78,0.02,3.56,0.02,5.34,0C26.99,70.25,27.04,70.16,27.03,70.01z"></path> </g> <g> <path class="st613" d="M59.17,70.01c0.09,0.01,0.18,0.02,0.27,0.04c0.02,0.01,0.04,0.03,0.05,0.05c-0.1,0.53-0.15,1.07-0.14,1.61 c-0.12,0.05-0.24,0.1-0.36,0.13c-0.01-0.22-0.04-0.42-0.11-0.63c-0.06-0.13-0.16-0.22-0.29-0.27c-0.56-0.04-1.13-0.05-1.7-0.04 c0,1.8,0,3.61,0.01,5.41c0.03,0.21,0.13,0.35,0.31,0.43c0.2,0.03,0.4,0.05,0.6,0.04c0,0.13,0,0.26,0,0.39 c-1.06-0.03-2.11-0.03-3.17,0c0-0.13,0-0.26,0-0.39c0.18,0,0.37,0,0.55-0.01c0.21-0.02,0.33-0.14,0.36-0.35 c0.04-1.84,0.05-3.68,0.04-5.52c-0.57,0-1.13,0-1.7,0.01c-0.2-0.01-0.34,0.07-0.44,0.25c-0.06,0.2-0.11,0.4-0.15,0.6 c-0.13,0.03-0.26,0.03-0.39,0c0.11-0.57,0.17-1.15,0.17-1.73c0.11-0.01,0.22,0,0.32,0.03c0.02,0.08,0.06,0.15,0.12,0.2 c0.12,0.03,0.24,0.05,0.36,0.07c1.6,0,3.19,0,4.79,0c0.12-0.02,0.24-0.04,0.36-0.07C59.13,70.19,59.17,70.11,59.17,70.01z"></path> </g> <g> <path class="st614" d="M50.82,70.07c0.09-0.01,0.15,0.03,0.19,0.1c0.69,2.06,1.38,4.12,2.07,6.17c0.12,0.34,0.36,0.49,0.71,0.44 c0,0.14,0,0.28-0.01,0.42c-0.91-0.07-1.81-0.07-2.72,0c-0.04-0.13-0.05-0.27-0.04-0.42c0.19,0.01,0.37-0.01,0.55-0.07 c0.08-0.03,0.12-0.09,0.12-0.18c-0.16-0.58-0.33-1.15-0.52-1.71c-0.68-0.03-1.36-0.03-2.04-0.03c-0.13,0.51-0.28,1.02-0.44,1.52 c-0.09,0.23-0.02,0.38,0.21,0.43c0.18,0.03,0.36,0.05,0.55,0.04c0,0.13,0,0.26,0,0.39c-0.74-0.03-1.48-0.03-2.22,0 c0-0.13,0-0.26,0-0.39c0.42,0.03,0.71-0.17,0.86-0.58c0.54-1.65,1.09-3.3,1.65-4.94c0.08-0.24,0.14-0.49,0.2-0.73 C50.24,70.4,50.54,70.25,50.82,70.07z M50.12,71.64c0.02,0,0.04,0.01,0.05,0.04c0.25,0.82,0.51,1.64,0.77,2.46 c-0.53,0.02-1.06,0.02-1.6,0C49.62,73.3,49.88,72.47,50.12,71.64z"></path> </g> <g> <path class="st618" d="M81.02,70.07c0.05,0,0.1,0.02,0.14,0.05c0.71,2.09,1.42,4.18,2.12,6.28c0.13,0.31,0.36,0.44,0.69,0.39 c0,0.14,0,0.28-0.01,0.42c-0.43-0.04-0.87-0.05-1.31-0.05c-0.48,0.01-0.96,0.02-1.45,0.03c0-0.13,0-0.26,0-0.39 c0.19,0.01,0.37-0.01,0.55-0.07c0.09-0.03,0.13-0.1,0.12-0.2c-0.15-0.57-0.32-1.14-0.51-1.7c-0.34-0.02-0.68-0.03-1.02-0.03 c-0.34,0-0.68,0.01-1.02,0.03c-0.16,0.56-0.32,1.12-0.49,1.67c0.07,0.19,0.2,0.28,0.4,0.27c0.13,0.01,0.27,0.02,0.4,0.01 c0,0.14,0,0.28-0.01,0.42c-0.72-0.07-1.45-0.07-2.17,0c-0.04-0.13-0.05-0.27-0.04-0.42c0.38,0.03,0.66-0.14,0.84-0.5 c0.65-1.91,1.28-3.83,1.88-5.75C80.43,70.39,80.73,70.24,81.02,70.07z M80.32,71.61c0.27,0.84,0.53,1.68,0.8,2.52 c-0.53,0.02-1.06,0.02-1.6,0C79.8,73.29,80.06,72.45,80.32,71.61z"></path> </g> <g> <path class="st619" d="M89.13,70.09c0.84-0.05,1.24,0.37,1.18,1.26c-0.14,0.5-0.46,0.77-0.96,0.81c-0.6-0.06-0.93-0.4-1-1.03 C88.39,70.6,88.65,70.25,89.13,70.09z M89.18,70.3c0.66-0.01,0.96,0.33,0.91,1.02c-0.21,0.56-0.58,0.73-1.11,0.51 c-0.4-0.31-0.48-0.7-0.26-1.16C88.83,70.5,88.99,70.38,89.18,70.3z M89.2,70.64c0.24-0.02,0.33,0.1,0.26,0.34 c-0.06,0.11-0.14,0.15-0.26,0.13C89.2,70.95,89.2,70.8,89.2,70.64z"></path> </g> <g> <path class="st611" d="M66.63,77.34c-0.2,0-0.4,0-0.6,0c-0.97-0.09-1.79-0.5-2.46-1.26c-0.66-0.91-0.89-1.93-0.67-3.06 c0.36-1.51,1.26-2.44,2.71-2.79c1.18-0.2,2.24,0.07,3.19,0.81c0.82,0.79,1.17,1.77,1.06,2.94C69.59,75.96,68.51,77.08,66.63,77.34 z M66.16,70.69c0.83,0.01,1.45,0.39,1.86,1.15c0.39,0.78,0.54,1.61,0.45,2.49c-0.02,0.65-0.2,1.24-0.52,1.78 c-0.39,0.48-0.89,0.72-1.5,0.71c-0.68-0.03-1.21-0.33-1.6-0.92c-0.42-0.74-0.63-1.54-0.64-2.41c0-0.57,0.1-1.12,0.31-1.65 C64.86,71.13,65.4,70.75,66.16,70.69z"></path> </g> <g> <path class="st620" d="M9.97,70.3c0.46,0.03,0.93,0.04,1.41,0.05c0.49-0.01,0.97-0.03,1.45-0.05c0.02,0,0.04,0.01,0.05,0.03 c0.01,0.13,0.02,0.26,0.01,0.39c-0.18-0.01-0.37,0-0.55,0.04c-0.12,0.03-0.2,0.1-0.24,0.22c-0.03,0.92-0.04,1.85-0.04,2.77 c0,0.93,0.01,1.85,0.04,2.77c0.04,0.12,0.12,0.19,0.24,0.22c0.18,0.04,0.36,0.05,0.55,0.04c0,0.13,0,0.26,0,0.39 c-0.97-0.03-1.95-0.03-2.92,0c0-0.13,0-0.26,0-0.39c0.2,0.01,0.4-0.01,0.6-0.07c0.1-0.05,0.16-0.13,0.19-0.25 c0.02-1.81,0.02-3.63,0-5.44c-0.04-0.13-0.11-0.22-0.24-0.27c-0.18-0.04-0.36-0.05-0.55-0.04C9.97,70.58,9.97,70.44,9.97,70.3z"></path> </g> <g> <path class="st621" d="M19.77,77.34c-0.13,0-0.27,0-0.4,0c-1.58-1.81-3.15-3.63-4.7-5.47c-0.02,1.4-0.02,2.79,0,4.19 c-0.01,0.3,0.1,0.52,0.34,0.67c0.22,0.06,0.45,0.08,0.67,0.07c0,0.13,0,0.26,0,0.39c-0.85-0.03-1.7-0.03-2.54,0 c0-0.13,0-0.26,0-0.39c0.56,0.06,0.88-0.2,0.94-0.78c0-0.78,0.01-1.55,0.01-2.33c0-0.81-0.01-1.62-0.04-2.43 c-0.18-0.4-0.48-0.58-0.91-0.52c-0.01-0.14,0-0.28,0.04-0.42c0.35,0.03,0.7,0.04,1.05,0.05c0.3-0.02,0.59-0.02,0.89-0.01 c1.34,1.58,2.69,3.17,4.03,4.75c0.02-1.28,0.02-2.56-0.02-3.85c-0.07-0.28-0.24-0.45-0.51-0.51c-0.15-0.01-0.3-0.02-0.45-0.01 c0-0.14,0-0.28,0.01-0.42c0.42,0.02,0.86,0.04,1.3,0.05c0.39-0.01,0.78-0.03,1.17-0.05c0.04,0.13,0.05,0.27,0.04,0.42 c-0.6-0.09-0.91,0.18-0.94,0.81c-0.02,1.8-0.02,3.61,0,5.41C19.75,77.08,19.76,77.21,19.77,77.34z"></path> </g> <g> <path class="st611" d="M27.58,70.3c0.48,0.02,0.97,0.03,1.46,0.05c0.58,0,1.16,0,1.75,0c0.51-0.02,1-0.04,1.5-0.05 c0.03,0.48,0.05,0.97,0.06,1.46c-0.01,0.04-0.02,0.09-0.02,0.13c-0.11,0.03-0.23,0.07-0.34,0.1c-0.01-0.29-0.08-0.56-0.2-0.81 c-0.17-0.2-0.38-0.31-0.64-0.33c-0.5-0.01-1-0.02-1.5-0.01c0,0.81,0,1.62,0,2.43c0.4,0,0.8,0,1.2-0.01 c0.21-0.02,0.35-0.13,0.44-0.33c0.05-0.16,0.09-0.33,0.11-0.5c0.12-0.03,0.23-0.03,0.35-0.01c-0.01,0.78,0,1.56,0.02,2.34 c-0.12,0.01-0.24,0.04-0.36,0.08c-0.03-0.25-0.08-0.49-0.15-0.73c-0.08-0.12-0.18-0.19-0.31-0.22c-0.43-0.01-0.86-0.02-1.3-0.01 c0,0.77,0,1.53,0.01,2.3c0.01,0.18,0.1,0.31,0.26,0.38c0.11,0.04,0.23,0.07,0.35,0.08c0.32,0.02,0.65,0.02,0.97,0 c0.4,0.02,0.73-0.12,1.01-0.41c0.14-0.23,0.24-0.47,0.31-0.73c0.11-0.02,0.22,0,0.32,0.04c0.01,0.02,0.02,0.04,0.02,0.07 c-0.12,0.51-0.23,1.03-0.32,1.54c-1.68-0.01-3.36,0-5.04,0.03c0-0.13,0-0.26,0-0.39c0.18,0.01,0.37,0,0.55-0.04 c0.11-0.05,0.19-0.13,0.24-0.25c0.03-0.91,0.04-1.83,0.04-2.75c0-0.92-0.01-1.83-0.04-2.75c-0.05-0.12-0.12-0.2-0.24-0.25 c-0.18-0.04-0.36-0.05-0.55-0.04C27.54,70.58,27.55,70.44,27.58,70.3z"></path> </g> <g> <path class="st612" d="M33.24,70.3c0.95,0.07,1.91,0.07,2.88,0c0.18,0.01,0.39,0.03,0.61,0.04c1.34,0.13,1.89,0.88,1.66,2.26 c-0.15,0.42-0.4,0.74-0.76,0.98c-0.14,0.09-0.28,0.16-0.42,0.24c0.57,0.89,1.14,1.77,1.71,2.66c0.2,0.21,0.45,0.32,0.74,0.31 c0,0.13,0,0.26,0,0.39c-0.62-0.03-1.25-0.03-1.87-0.03c-0.69-0.98-1.33-2.01-1.9-3.09c-0.17-0.03-0.35-0.03-0.52-0.03 c-0.01,0.81,0,1.62,0.04,2.43c0.04,0.13,0.11,0.22,0.24,0.27c0.21,0.03,0.41,0.05,0.62,0.05c0.02,0.12,0.03,0.25,0.02,0.38 c-1.01-0.03-2.03-0.03-3.04,0c0-0.13,0-0.26,0-0.39c0.2,0.01,0.39-0.01,0.57-0.07c0.12-0.07,0.19-0.17,0.24-0.3 c0-0.87,0.01-1.74,0.01-2.6c0-0.91-0.01-1.82-0.04-2.73c-0.03-0.15-0.11-0.26-0.24-0.33c-0.18-0.04-0.36-0.05-0.55-0.04 C33.24,70.58,33.24,70.44,33.24,70.3z M35.51,70.77c0.42-0.05,0.82,0.04,1.17,0.27c0.31,0.3,0.46,0.67,0.45,1.11 c0,0.37-0.09,0.71-0.26,1.02c-0.25,0.27-0.57,0.41-0.94,0.41c-0.2,0.02-0.4,0.02-0.6,0c0.03-0.92,0.03-1.83,0-2.75 C35.39,70.81,35.45,70.79,35.51,70.77z"></path> </g> <g> <path class="st611" d="M46.48,77.34c-0.14,0-0.28,0-0.42,0c-1.57-1.82-3.13-3.64-4.7-5.47c-0.02,1.32-0.02,2.63,0,3.95 c-0.01,0.25,0.03,0.48,0.12,0.71c0.11,0.15,0.26,0.23,0.44,0.25c0.15,0.01,0.3,0.02,0.45,0.03c0.02,0.12,0.03,0.25,0.02,0.38 c-0.86-0.03-1.71-0.03-2.57,0c0-0.13,0-0.26,0-0.39c0.29,0.05,0.55-0.03,0.76-0.24c0.13-0.23,0.2-0.49,0.2-0.76 c0.02-1.46,0.02-2.91,0-4.37c-0.07-0.36-0.27-0.6-0.61-0.69c-0.12-0.01-0.23-0.02-0.35-0.01c0-0.13,0-0.26,0.01-0.39 c0.01-0.01,0.02-0.02,0.04-0.03c0.34,0.02,0.69,0.04,1.05,0.05c0.3-0.02,0.6-0.03,0.9-0.01c1.35,1.59,2.69,3.18,4.03,4.77 c0.02-1.27,0.02-2.55-0.02-3.82c-0.06-0.31-0.24-0.5-0.54-0.56c-0.15-0.01-0.3-0.02-0.45-0.01c0-0.13,0-0.26,0.01-0.39 c0.01-0.01,0.03-0.02,0.05-0.03c0.41,0.02,0.83,0.04,1.26,0.05c0.39-0.01,0.78-0.03,1.16-0.05c0.02,0,0.04,0.01,0.05,0.03 c0.01,0.13,0.02,0.26,0.01,0.39c-0.55-0.11-0.87,0.12-0.94,0.71c-0.04,1.77-0.05,3.54-0.02,5.31 C46.42,76.94,46.45,77.14,46.48,77.34z"></path> </g> <g> <path class="st620" d="M59.77,70.3c0.96,0.07,1.91,0.07,2.86,0c0.01,0.14,0.02,0.28,0.01,0.42c-0.18-0.01-0.37,0-0.55,0.04 c-0.12,0.05-0.2,0.14-0.24,0.27c-0.02,1.81-0.02,3.63,0,5.44c0.05,0.19,0.17,0.29,0.36,0.3c0.14,0.01,0.28,0.02,0.42,0.01 c0,0.13,0,0.26,0,0.39c-0.97-0.03-1.95-0.03-2.92,0c0-0.13,0-0.26,0-0.39c0.18,0.01,0.37,0,0.55-0.04c0.12-0.03,0.2-0.1,0.24-0.22 c0.03-0.92,0.04-1.85,0.04-2.77c0-0.93-0.01-1.85-0.04-2.77c-0.04-0.12-0.12-0.19-0.24-0.22c-0.18-0.04-0.36-0.05-0.55-0.04 C59.71,70.57,59.73,70.43,59.77,70.3z"></path> </g> <g> <path class="st613" d="M76.66,77.34c-0.13,0-0.27,0-0.4,0c-0.04-0.02-0.08-0.04-0.11-0.08c-1.53-1.8-3.06-3.59-4.59-5.39 c-0.02,1.47-0.02,2.95,0.02,4.42c0.06,0.29,0.23,0.45,0.51,0.48c0.16,0.01,0.32,0.02,0.47,0.01c0,0.13,0,0.26,0,0.39 c-0.86-0.03-1.71-0.03-2.57,0c-0.01-0.13,0-0.26,0.02-0.38c0.61,0.04,0.92-0.26,0.94-0.9c0-0.75,0.01-1.5,0.01-2.25 c0-0.79-0.01-1.59-0.04-2.38c-0.18-0.41-0.48-0.59-0.91-0.56c-0.03-0.13-0.03-0.25,0-0.38c0.01-0.01,0.03-0.01,0.04-0.03 c0.34,0.03,0.68,0.04,1.02,0.05c0.3-0.02,0.61-0.02,0.91-0.01c1.35,1.58,2.69,3.17,4.03,4.77c0.02-1.28,0.02-2.56-0.02-3.85 c-0.07-0.3-0.25-0.47-0.54-0.54c-0.15-0.01-0.3-0.02-0.45-0.01c-0.01-0.13,0-0.26,0.02-0.39c0.01-0.01,0.03-0.01,0.04-0.03 c0.81,0.07,1.63,0.07,2.44,0c0.04,0.13,0.05,0.27,0.04,0.42c-0.56-0.1-0.87,0.14-0.94,0.73c-0.04,1.71-0.05,3.42-0.02,5.13 C76.6,76.83,76.62,77.09,76.66,77.34z"></path> </g> <g> <path class="st611" d="M84.24,70.3c0.96,0.07,1.92,0.07,2.88,0c0.04,0.13,0.05,0.27,0.04,0.42c-0.2,0-0.4,0-0.6,0.01 c-0.12,0.03-0.2,0.1-0.24,0.22c-0.02,1.8-0.02,3.61,0,5.41c0.09,0.19,0.23,0.29,0.44,0.3c0.46,0.05,0.94,0.03,1.45-0.05 c0.4-0.13,0.68-0.39,0.84-0.8c0.05-0.13,0.08-0.26,0.11-0.39c0.12,0,0.25,0,0.37,0c-0.12,0.58-0.24,1.17-0.35,1.75 c-1.66-0.03-3.33-0.03-4.99,0c0-0.13,0-0.26,0-0.39c0.2,0.01,0.4-0.01,0.6-0.07c0.1-0.06,0.16-0.14,0.19-0.25 c0.03-0.92,0.04-1.84,0.04-2.76c0-0.88-0.01-1.77-0.01-2.66c-0.05-0.2-0.17-0.31-0.36-0.33c-0.15-0.01-0.3-0.02-0.45-0.01 C84.17,70.57,84.19,70.43,84.24,70.3z"></path> </g> <g> <path class="st622" d="M88.85,70.56c0.22,0,0.43,0,0.65,0.01c0.18,0.06,0.24,0.19,0.19,0.38c-0.05,0.08-0.11,0.15-0.19,0.21 c0.1,0.17,0.22,0.32,0.35,0.47c-0.08,0.03-0.17,0.03-0.25,0.01c-0.11-0.13-0.21-0.28-0.29-0.43c-0.03-0.02-0.07-0.03-0.11-0.03 c0,0.12,0,0.24,0.01,0.37c0.04,0.02,0.09,0.03,0.14,0.03c0,0.03,0,0.05,0,0.08c-0.17,0-0.33,0-0.5,0c0-0.03,0-0.05,0-0.08 c0.05,0.01,0.09,0,0.14-0.03c0.02-0.3,0.02-0.59,0-0.89c-0.04-0.02-0.09-0.03-0.14-0.03C88.85,70.61,88.85,70.59,88.85,70.56z M89.2,70.64c0,0.16,0,0.31,0,0.47c0.12,0.02,0.21-0.02,0.26-0.13C89.53,70.74,89.44,70.63,89.2,70.64z"></path> </g> </g> </svg> 