<?xml version="1.0" encoding="UTF-8"?> <svg xmlns="http://www.w3.org/2000/svg" xmlns:xlink="http://www.w3.org/1999/xlink" version="1.1" id="Layer_1" x="0px" y="0px" viewBox="0 0 100 100" style="enable-background:new 0 0 100 100;" xml:space="preserve"> <style type="text/css"> .st0{display:none;fill:#309244;} .st1{display:none;fill:#931B1E;} .st2{display:none;fill:#FFFFFF;} .st3{fill:#384EA1;} .st4{fill:#FDD21C;} .st5{fill:#EA3B26;} .st6{display:none;fill:#F7F6F1;} .st7{display:none;fill:#F6F4F6;} .st8{display:none;fill:#F8F8E9;} .st9{display:none;fill:#F8F6EA;} .st10{fill:#FAD220;} .st11{fill:#E53E2D;} .st12{display:none;fill:#F7F3EF;} .st13{fill:#E23E28;} .st14{display:none;fill:#FBF3F1;} .st15{display:none;fill:#F6F7F0;} .st16{display:none;fill:#FBF5D5;} .st17{display:none;fill:#F9E8E5;} .st18{fill:#E43E28;} .st19{display:none;fill:#FAECEB;} .st20{display:none;fill:#F5F6ED;} .st21{display:none;fill:#F7F4F5;} .st22{display:none;fill:#FAEFEE;} .st23{fill:#F6D13D;} .st24{fill:#B54135;} .st25{display:none;fill:#F7F7E9;} .st26{display:none;fill:#F5F8F2;} .st27{display:none;fill:#F7EDEB;} .st28{display:none;fill:#F4F7F5;} .st29{display:none;fill:#F6F5F1;} .st30{fill:#DB452A;} .st31{fill:#DB432C;} .st32{display:none;fill:#F3F8F4;} .st33{display:none;fill:#F9F1F4;} .st34{display:none;fill:#F9EBE7;} .st35{fill:#E13F28;} .st36{display:none;fill:#F6F6F2;} .st37{fill:#DF422C;} .st38{fill:#DD432C;} .st39{display:none;fill:#F5F7F2;} .st40{display:none;fill:#F6F5DC;} .st41{display:none;fill:#F9E9E5;} .st42{display:none;fill:#F7ECEC;} .st43{display:none;fill:#F6F4E1;} .st44{fill:#E2412A;} .st45{fill:#F4D53C;} .st46{fill:#F8D138;} .st47{display:none;fill:#F3F8F3;} .st48{fill:#D94831;} .st49{display:none;fill:#F4F8F3;} .st50{display:none;fill:#F7E7E6;} .st51{display:none;fill:#F8F4D7;} .st52{display:none;fill:#F6F7F1;} .st53{fill:#F9D327;} .st54{display:none;fill:#F8F4F7;} .st55{display:none;fill:#F1F8F5;} .st56{fill:#FAD03F;} .st57{display:none;fill:#F9E5E4;} .st58{display:none;fill:#F9E5E3;} .st59{display:none;fill:#F7E2E3;} .st60{fill:#F3D23F;} .st61{display:none;fill:#F7F6EA;} .st62{display:none;fill:#F7F3F9;} .st63{display:none;fill:#F5F9F2;} .st64{display:none;fill:#F8EFD8;} .st65{display:none;fill:#F7F1D2;} .st66{fill:#CF472E;} .st67{display:none;fill:#F6F4D7;} .st68{fill:#E4422F;} .st69{display:none;fill:#F6EEED;} .st70{display:none;fill:#F5F6E0;} .st71{display:none;fill:#F8F4C4;} .st72{fill:#CB452E;} .st73{display:none;fill:#F8F4DA;} .st74{display:none;fill:#F7F5E4;} .st75{display:none;fill:#F1D5CC;} .st76{display:none;fill:#F6F5DE;} .st77{display:none;fill:#F6F4D9;} .st78{fill:#F6D43A;} .st79{fill:#CB462C;} .st80{fill:#DC4631;} .st81{display:none;fill:#F3F9EE;} .st82{fill:#E4402E;} .st83{display:none;fill:#FDF3F7;} .st84{display:none;fill:#F6E3E3;} .st85{display:none;fill:#F8F7D8;} .st86{display:none;fill:#F7E8E6;} .st87{display:none;fill:#F5F1C5;} .st88{fill:#F2D743;} .st89{display:none;fill:#F7F4E2;} .st90{fill:#D94935;} .st91{fill:#F8D141;} .st92{fill:#D33F2C;} .st93{display:none;fill:#F8ECE1;} .st94{display:none;fill:#FAE9E6;} .st95{fill:#F7CB51;} .st96{fill:#D46250;} .st97{fill:#DF422D;} .st98{fill:#F6D042;} .st99{fill:#D53B27;} .st100{display:none;fill:#F2F8F1;} .st101{display:none;fill:#F1F7F3;} .st102{display:none;fill:#F8F5D7;} .st103{display:none;fill:#F8F2DB;} .st104{display:none;fill:#F7F0F1;} .st105{display:none;fill:#FAF1F6;} .st106{display:none;fill:#F5F8F0;} .st107{display:none;fill:#F7E4DE;} .st108{display:none;fill:#F9F5D7;} .st109{display:none;fill:#F6ECEC;} .st110{fill:#F5D25D;} .st111{display:none;fill:#F8F1CC;} .st112{display:none;fill:#F8F5DF;} .st113{display:none;fill:#F4F5EE;} .st114{fill:#F5D85F;} .st115{display:none;fill:#F7E6E3;} .st116{display:none;fill:#F4F8EE;} .st117{display:none;fill:#F5F9EB;} .st118{display:none;fill:#FAF2E6;} .st119{display:none;fill:#FCF6D8;} .st120{display:none;fill:#F6F7D8;} .st121{display:none;fill:#FCF1F1;} .st122{display:none;fill:#F4F9F0;} .st123{display:none;fill:#F4F9EE;} .st124{display:none;fill:#F8E5E5;} .st125{display:none;fill:#FBE8E4;} .st126{display:none;fill:#F3F3D9;} .st127{display:none;fill:#F6F5DB;} .st128{display:none;fill:#F5EFED;} .st129{fill:#F0D649;} .st130{display:none;fill:#F7F1BD;} .st131{fill:#B8422F;} .st132{display:none;fill:#F2F7EC;} .st133{fill:#F2D757;} .st134{fill:#FDCF1F;} .st135{fill:#FDCE23;} .st136{fill:#FCCD22;} .st137{fill:#FCCB22;} .st138{fill:#FCCC22;} .st139{fill:#FDCF20;} .st140{fill:#FEC827;} .st141{fill:#FCCA24;} .st142{fill:#FCC829;} .st143{fill:#FDC72C;} .st144{fill:#FDCB26;} .st145{fill:#FAD318;} .st146{fill:#FCD02C;} .st147{fill:#FCC925;} .st148{fill:#FBC132;} .st149{fill:#FBC42D;} .st150{fill:#FDC531;} .st151{fill:#FCCA26;} .st152{fill:#FDCA27;} .st153{fill:#FAC229;} .st154{fill:#FBC827;} .st155{fill:#F7DD6F;} .st156{fill:#FCD21F;} .st157{fill:#FBC232;} .st158{fill:#FDCD24;} .st159{fill:#FECE22;} .st160{fill:#FAD215;} .st161{fill:#FAC030;} .st162{fill:#FEC42E;} .st163{fill:#F8D120;} .st164{fill:#FCCD21;} .st165{fill:#D74E27;} .st166{fill:#F8D516;} .st167{fill:#FECA2F;} .st168{fill:#FCBE31;} .st169{fill:#FCD31E;} .st170{fill:#FDC92A;} .st171{fill:#FCCC21;} .st172{fill:#F9D326;} .st173{fill:#FEBF41;} .st174{fill:#D55627;} .st175{fill:#F6C428;} .st176{fill:#FBD318;} .st177{fill:#DC4B26;} .st178{fill:#FCD02E;} .st179{fill:#DE5427;} .st180{fill:#F3D521;} .st181{fill:#FAD219;} .st182{fill:#F9D21E;} .st183{fill:#FDC72A;} .st184{fill:#F8D41B;} .st185{fill:#FDC92B;} .st186{fill:#CC5127;} .st187{fill:#C36B29;} .st188{fill:#DB5126;} .st189{fill:#B75427;} .st190{fill:#F8D523;} .st191{fill:#FAD418;} .st192{fill:#FBD21C;} .st193{fill:#FAC430;} .st194{fill:#EDB820;} .st195{fill:#F6D323;} .st196{fill:#C45428;} .st197{fill:#F9D513;} .st198{fill:#EDBB20;} .st199{fill:#FFCE3F;} .st200{fill:#CD8B2A;} .st201{fill:#F9D142;} .st202{fill:#F7D613;} .st203{fill:#F9D416;} .st204{fill:#D57327;} .st205{fill:#E05B27;} .st206{fill:#F1DB6E;} .st207{fill:#E69926;} .st208{fill:#F8CF52;} .st209{fill:#F6CD46;} .st210{fill:#F9D351;} .st211{fill:#F9D515;} .st212{fill:#FDCE1F;} .st213{fill:#FACE48;} .st214{fill:#F6D55A;} .st215{fill:#F2D752;} .st216{fill:#F3D561;} .st217{fill:#F4EB9E;} .st218{fill:#F5D340;} .st219{fill:#EA9E26;} .st220{fill:#E3B224;} .st221{fill:#F1D541;} .st222{fill:#F6D246;} .st223{fill:#F6F1C6;} .st224{fill:#B7802C;} .st225{fill:#CB5F28;} .st226{fill:#E54226;} .st227{fill:#E49C25;} .st228{fill:#BF732A;} .st229{fill:#E63F26;} .st230{fill:#E73F26;} .st231{fill:#EB3A27;} .st232{fill:#E44126;} .st233{fill:#E63E26;} .st234{fill:#E24226;} .st235{fill:#E14226;} .st236{fill:#E83F28;} .st237{fill:#DE4826;} .st238{fill:#E14326;} .st239{fill:#D94B27;} .st240{fill:#E53D2A;} .st241{fill:#DF4226;} .st242{fill:#E44426;} .st243{fill:#EA3A27;} .st244{fill:#DC4626;} .st245{fill:#E1412F;} .st246{fill:#E63E28;} .st247{fill:#E04326;} .st248{fill:#ED3B26;} .st249{fill:#E04426;} .st250{fill:#E64026;} .st251{fill:#E43D2C;} .st252{fill:#E24026;} .st253{fill:#E04526;} .st254{fill:#E34426;} .st255{fill:#EA3B28;} .st256{fill:#E34726;} .st257{fill:#E34226;} .st258{fill:#E93C2A;} .st259{fill:#DF402B;} .st260{fill:#E63D27;} .st261{fill:#E34125;} .st262{fill:#E63C2B;} .st263{fill:#E1402E;} .st264{fill:#E23F29;} .st265{fill:#FBC131;} .st266{fill:#DA4927;} .st267{fill:#D53A28;} .st268{fill:#F4AC3D;} .st269{fill:#EA3A28;} .st270{fill:#EB3A28;} .st271{fill:#E04826;} .st272{fill:#E4402F;} .st273{fill:#C74E27;} .st274{fill:#D74230;} .st275{fill:#E73C2C;} .st276{fill:#B84231;} .st277{fill:#ED3A28;} .st278{fill:#DC432C;} .st279{fill:#ED3C2A;} .st280{fill:#DB442B;} .st281{fill:#ED3A2B;} .st282{fill:#E24327;} .st283{fill:#EE3B24;} .st284{fill:#E04128;} .st285{fill:#ED3B28;} .st286{fill:#EB3B28;} .st287{fill:#CF4C27;} .st288{fill:#E73E2A;} .st289{fill:#EB3B2A;} .st290{fill:#EB3A2A;} .st291{fill:#F5A640;} .st292{fill:#BC5727;} .st293{fill:#ED3A2C;} .st294{fill:#C64E27;} .st295{fill:#C14627;} .st296{fill:#D9432C;} .st297{fill:#DC402B;} .st298{fill:#BD4B27;} .st299{fill:#BD5127;} .st300{fill:#E53F26;} .st301{fill:#E43E26;} .st302{fill:#C44B27;} .st303{fill:#C14F27;} .st304{fill:#BE4F27;} .st305{fill:#DA432D;} .st306{fill:#EB3A29;} .st307{fill:#D04928;} .st308{fill:#C14A27;} .st309{fill:#ED3A2A;} .st310{fill:#E93B29;} .st311{fill:#EB3C2D;} .st312{fill:#E93C30;} .st313{fill:#E43F26;} .st314{fill:#ED3928;} .st315{fill:#EE3B29;} .st316{fill:#EA392D;} .st317{fill:#C45127;} .st318{fill:#E0402A;} .st319{fill:#EB3A2B;} .st320{fill:#F7AC46;} .st321{fill:#C25628;} .st322{fill:#F3753E;} .st323{fill:#D33B27;} .st324{fill:#D9452E;} .st325{fill:#C64F28;} .st326{fill:#C45528;} .st327{fill:#D74133;} .st328{fill:#C75128;} .st329{fill:#D95128;} .st330{fill:#E83A2C;} .st331{fill:#DD4326;} .st332{fill:#EE3A2C;} .st333{fill:#F37345;} .st334{fill:#BD5827;} .st335{fill:#F1AB35;} .st336{fill:#BA5827;} .st337{fill:#F3AB3B;} .st338{fill:#D74333;} .st339{fill:#EB3829;} .st340{fill:#E03F2C;} .st341{fill:#EA9D3D;} .st342{fill:#C74F27;} .st343{fill:#CD4C28;} .st344{fill:#E33F26;} .st345{fill:#C94627;} .st346{fill:#EE382D;} .st347{fill:#EB392C;} .st348{fill:#EE392B;} .st349{fill:#C74927;} .st350{fill:#E73C30;} .st351{fill:#BC5E28;} .st352{fill:#EC3A29;} .st353{fill:#EB3B29;} .st354{fill:#F9A257;} .st355{fill:#FCB550;} .st356{fill:#D64927;} .st357{fill:#F15A3B;} .st358{fill:#ED3929;} .st359{fill:#D24327;} .st360{fill:#E53F31;} .st361{fill:#F47F55;} .st362{fill:#C14527;} .st363{fill:#D84427;} .st364{fill:#F36E46;} .st365{fill:#BF4627;} .st366{fill:#DD422C;} .st367{fill:#C06C29;} .st368{fill:#F2A74B;} .st369{fill:#F68C50;} .st370{fill:#E13F26;} .st371{fill:#ED392D;} .st372{fill:#E9392E;} .st373{fill:#EA3D2A;} .st374{fill:#CD3B27;} .st375{fill:#EF392A;} .st376{fill:#E24031;} .st377{fill:#EE392F;} .st378{fill:#EF3930;} .st379{fill:#F1722A;} .st380{fill:#F58F33;} .st381{fill:#F26744;} .st382{fill:#DE462F;} .st383{fill:#F26B48;} .st384{fill:#EF452E;} .st385{fill:#B95A27;} .st386{fill:#F7965A;} .st387{fill:#F4784E;} .st388{fill:#DB4939;} .st389{fill:#F47D44;} .st390{fill:#FAA53E;} .st391{fill:#B74627;} .st392{fill:#EA3A2D;} .st393{fill:#E03D2E;} .st394{fill:#CD3A2B;} .st395{display:none;fill:#F6F4EA;} .st396{display:none;fill:#F4F4C3;} .st397{display:none;fill:#F6EDBC;} .st398{fill:#F3EBA2;} .st399{fill:#CD4B30;} .st400{fill:#EC3B25;} .st401{fill:#BB472A;} .st402{fill:#DA4331;} .st403{display:none;fill:#F6F6F6;} .st404{fill:#FCC52E;} .st405{fill:#F7B631;} .st406{fill:#BB6628;} .st407{fill:#EDBD1F;} .st408{fill:#C78B2B;} .st409{fill:#D16A2D;} .st410{fill:#D7792B;} .st411{fill:#FABF31;} .st412{fill:#E14B27;} .st413{fill:#D65627;} .st414{fill:#C05928;} .st415{fill:#B56528;} .st416{fill:#D23B27;} .st417{fill:#CE6329;} .st418{fill:#D85427;} .st419{fill:#C68F2C;} .st420{fill:#D18E2A;} .st421{fill:#C47A2A;} .st422{fill:#D94F27;} .st423{fill:#FCC331;} .st424{fill:#FEC234;} .st425{fill:#E29E26;} .st426{fill:#C35127;} .st427{fill:#FDBB4B;} .st428{fill:#BD7429;} .st429{fill:#B75527;} .st430{fill:#D0672A;} .st431{fill:#CF5228;} .st432{fill:#FCB939;} .st433{fill:#B45C27;} .st434{fill:#D66627;} .st435{fill:#D24C27;} .st436{fill:#CB4927;} .st437{fill:#DE8827;} .st438{fill:#EFB91E;} .st439{fill:#FCB73D;} .st440{fill:#F6B638;} .st441{fill:#C86028;} .st442{fill:#B26027;} .st443{fill:#BC5527;} .st444{fill:#CF5828;} .st445{fill:#D25027;} .st446{fill:#F8B239;} .st447{fill:#C65929;} .st448{fill:#DA7427;} .st449{fill:#FBC22E;} .st450{fill:#D05929;} .st451{fill:#E9B321;} .st452{fill:#F9BA35;} .st453{fill:#D34E27;} .st454{fill:#E65A25;} .st455{fill:#D03B27;} .st456{fill:#DD4B27;} .st457{fill:#CB5028;} .st458{fill:#F9A24B;} .st459{fill:#F9A14B;} .st460{fill:#BF5127;} .st461{fill:#FCB44D;} .st462{fill:#FFC62D;} .st463{fill:#D26628;} .st464{fill:#DB4526;} .st465{fill:#FDBC3E;} .st466{fill:#BE5527;} .st467{fill:#C54C27;} .st468{fill:#C68D2C;} .st469{fill:#BE5A27;} .st470{fill:#B35D27;} .st471{fill:#BC7F2B;} .st472{fill:#F5AE3A;} .st473{fill:#D45427;} .st474{fill:#D94727;} .st475{fill:#BF6028;} .st476{fill:#BD4C27;} .st477{fill:#FFC734;} .st478{fill:#FCC42E;} .st479{fill:#F4D147;} .st480{fill:#BF5928;} .st481{fill:#DD4D26;} .st482{fill:#BE4527;} .st483{fill:#E04626;} .st484{fill:#FBBE33;} .st485{fill:#C24C27;} .st486{fill:#D84627;} .st487{fill:#A95526;} .st488{fill:#FABE33;} .st489{fill:#D7632A;} .st490{fill:#BC6628;} .st491{fill:#B65D27;} .st492{fill:#D35E28;} .st493{fill:#FBB13D;} .st494{fill:#D94D27;} .st495{fill:#C75027;} .st496{fill:#E05027;} .st497{fill:#D05327;} .st498{fill:#FABE2F;} .st499{fill:#F2B12C;} .st500{fill:#FCB840;} .st501{fill:#FFC737;} .st502{fill:#D98E28;} .st503{fill:#D63B27;} .st504{fill:#FDBA47;} .st505{fill:#D65428;} .st506{fill:#B86B29;} .st507{fill:#C87428;} .st508{fill:#D25427;} .st509{fill:#FABE34;} .st510{fill:#C54E27;} .st511{fill:#C94827;} .st512{fill:#FBAE5B;} .st513{fill:#C24F27;} .st514{fill:#BB732A;} .st515{fill:#D39E2A;} .st516{fill:#BA5127;} .st517{fill:#D34A27;} .st518{fill:#C64B27;} .st519{fill:#E59D25;} .st520{fill:#E24526;} .st521{fill:#BD4627;} .st522{fill:#E93A26;} .st523{fill:#D95427;} .st524{fill:#BC6E28;} .st525{fill:#B95C27;} .st526{fill:#EF3A2B;} .st527{fill:#D13D27;} .st528{fill:#CC4727;} .st529{fill:#C64927;} .st530{fill:#F9A558;} .st531{fill:#EF6B29;} .st532{fill:#EB9E3E;} .st533{fill:#CD4627;} .st534{fill:#B74D26;} .st535{fill:#F39747;} .st536{fill:#F89E5F;} .st537{fill:#E99736;} .st538{fill:#D83927;} .st539{fill:#C05528;} .st540{fill:#FCB649;} .st541{fill:#EC9238;} .st542{fill:#D83627;} .st543{fill:#DD6729;} .st544{fill:#F68E51;} .st545{fill:#D64127;} .st546{fill:#BA4E27;} .st547{fill:#ED9C42;} .st548{fill:#D43E27;} .st549{fill:#DA4327;} .st550{fill:#BC5627;} .st551{fill:#F0A437;} .st552{fill:#B95C28;} .st553{fill:#F2A834;} .st554{fill:#BF5027;} .st555{fill:#FCB545;} .st556{fill:#F79642;} .st557{fill:#F26A3C;} .st558{fill:#EF4731;} .st559{fill:#F9A742;} .st560{fill:#F8B835;} .st561{fill:#B95327;} .st562{fill:#BF5628;} .st563{fill:#C66A29;} .st564{fill:#BF5227;} .st565{fill:#D94927;} .st566{fill:#BD5C28;} .st567{fill:#CF3A27;} .st568{fill:#F27B44;} .st569{fill:#FBAF49;} .st570{fill:#F29546;} .st571{fill:#FCB63F;} .st572{fill:#CF3927;} .st573{fill:#BA5927;} .st574{fill:#D33827;} .st575{fill:#BB5327;} .st576{fill:#F5A63B;} .st577{fill:#D33A27;} .st578{fill:#D87232;} .st579{fill:#F4753B;} .st580{fill:#FAA958;} .st581{fill:#F4B138;} .st582{fill:#F9A35E;} .st583{fill:#F2AD2F;} .st584{fill:#F47839;} .st585{fill:#EC993B;} .st586{fill:#FAA74D;} .st587{fill:#F9A04D;} .st588{fill:#F7955A;} .st589{fill:#F89C4C;} .st590{fill:#E55825;} .st591{fill:#E75825;} .st592{fill:#D55128;} .st593{fill:#F7924C;} .st594{fill:#F68D49;} .st595{fill:#F89951;} .st596{fill:#CB4B27;} .st597{fill:#CD5928;} .st598{fill:#BF5727;} .st599{fill:#EF9D44;} .st600{fill:#BC5227;} .st601{fill:#FAB536;} .st602{fill:#F5B221;} .st603{fill:#CD4527;} .st604{fill:#BF5828;} .st605{fill:#F89E57;} .st606{opacity:0.999;fill-rule:evenodd;clip-rule:evenodd;fill:#0A79BD;enable-background:new ;} .st607{fill-rule:evenodd;clip-rule:evenodd;fill:#FFFFFF;} .st608{fill-rule:evenodd;clip-rule:evenodd;fill:#BCDCEC;} .st609{fill-rule:evenodd;clip-rule:evenodd;fill:#56A6D4;} .st610{fill-rule:evenodd;clip-rule:evenodd;fill:#0779BE;} .st611{opacity:0.992;fill-rule:evenodd;clip-rule:evenodd;fill:#201E1F;enable-background:new ;} .st612{opacity:0.994;fill-rule:evenodd;clip-rule:evenodd;fill:#201E1F;enable-background:new ;} .st613{opacity:0.993;fill-rule:evenodd;clip-rule:evenodd;fill:#201E1F;enable-background:new ;} .st614{opacity:0.99;fill-rule:evenodd;clip-rule:evenodd;fill:#201E1F;enable-background:new ;} .st615{opacity:0.996;fill-rule:evenodd;clip-rule:evenodd;fill:#201E1F;enable-background:new ;} .st616{opacity:0.986;fill-rule:evenodd;clip-rule:evenodd;fill:#201E1F;enable-background:new ;} .st617{opacity:0.991;fill-rule:evenodd;clip-rule:evenodd;fill:#201E1F;enable-background:new ;} .st618{opacity:0.989;fill-rule:evenodd;clip-rule:evenodd;fill:#201E1F;enable-background:new ;} .st619{opacity:0.966;fill-rule:evenodd;clip-rule:evenodd;fill:#201E1F;enable-background:new ;} .st620{opacity:0.988;fill-rule:evenodd;clip-rule:evenodd;fill:#201E1F;enable-background:new ;} .st621{opacity:0.987;fill-rule:evenodd;clip-rule:evenodd;fill:#201E1F;enable-background:new ;} .st622{opacity:0.959;fill-rule:evenodd;clip-rule:evenodd;fill:#201E1F;enable-background:new ;} .st623{fill-rule:evenodd;clip-rule:evenodd;fill:#336CB5;} .st624{fill-rule:evenodd;clip-rule:evenodd;fill:#346BB4;} .st625{fill-rule:evenodd;clip-rule:evenodd;fill:#8EC2E9;} .st626{fill-rule:evenodd;clip-rule:evenodd;fill:#FDFEFF;} .st627{fill:#FEDC00;} .st628{fill:#1A2E55;} .st629{fill-rule:evenodd;clip-rule:evenodd;fill:#D11970;} .st630{fill:#FFFFFF;} .st631{fill:#0377B7;} .st632{fill:#046A37;} .st633{fill:#77BD43;} .st634{opacity:0.998;fill-rule:evenodd;clip-rule:evenodd;fill:#253D80;enable-background:new ;} .st635{fill-rule:evenodd;clip-rule:evenodd;fill:#242E65;} .st636{opacity:0.997;fill-rule:evenodd;clip-rule:evenodd;fill:#169AD7;enable-background:new ;} .st637{opacity:0.997;fill-rule:evenodd;clip-rule:evenodd;fill:#253D80;enable-background:new ;} .st638{opacity:0.996;fill-rule:evenodd;clip-rule:evenodd;fill:#169AD7;enable-background:new ;} .st639{opacity:0.995;fill-rule:evenodd;clip-rule:evenodd;fill:#169AD7;enable-background:new ;} .st640{opacity:0.996;fill-rule:evenodd;clip-rule:evenodd;fill:#253D80;enable-background:new ;} .st641{display:none;fill:#FDFDFD;} .st642{fill:#333333;} .st643{clip-path:url(#SVGID_3_);} .st644{clip-path:url(#SVGID_4_);} .st645{clip-path:url(#SVGID_8_);fill:#FBBD13;} .st646{clip-path:url(#SVGID_8_);fill:#2CA94E;} .st647{clip-path:url(#SVGID_10_);} .st648{fill:#F37021;} </style> <g> <g> <path class="st648" d="M51.82,53.88c-2.7,0-4.08-2.87-4.08-8.91s1.37-8.91,4.08-8.91c2.7,0,4.06,2.87,4.06,8.91 S54.51,53.88,51.82,53.88L51.82,53.88z M51.82,39c-1.87,0-2.42,1.87-2.42,5.95s0.54,5.92,2.42,5.92c1.87,0,2.4-1.87,2.4-5.92 S53.68,39,51.82,39L51.82,39z"></path> <path class="st648" d="M77.76,49.69c1.44,2.51,3.29,3.89,5.23,3.89c0-2.08-0.66-3.84-1.56-4.3c-0.96-0.49-1.85-1.4-2.58-2.67 c-0.92-1.61-1.48-3.6-1.63-5.72c-0.03-0.35,0.11-0.64,0.26-0.59c0.77,0.28,2.22,0.6,5.59,0.6c1.68,0.02,1.97,1.25,2.52,4.29 c0,0,0.02,0.08,0.04,0.22c-0.48,2.85-1.39,8.77-1.7,14.13c0.58,0.17,1.16,0.29,1.75,0.38c0.17-2.84,0.53-5.91,0.89-8.52 c0.36,2.62,0.73,5.72,0.9,8.59c0.59-0.02,1.17-0.11,1.76-0.23c-0.3-5.42-1.23-11.46-1.71-14.34c0.03-0.15,0.04-0.23,0.04-0.23 c0.54-3.02,0.83-4.24,2.51-4.27c3.44,0,4.87-0.34,5.64-0.63c0.14-0.05,0.25,0.21,0.23,0.51c-0.14,2.15-0.71,4.18-1.64,5.8 c-0.73,1.27-1.62,2.19-2.58,2.67c-0.91,0.46-1.56,2.22-1.56,4.3c1.93,0,3.79-1.38,5.23-3.89c1.51-2.64,2.34-6.17,2.34-9.93v-0.52 c0-0.21-0.01-0.42-0.03-0.64c-0.17-1.7-0.99-2.72-1.88-2.31c-0.53,0.24-1.63,0.74-5.75,0.74c-1.94,0.02-2.87,1.51-3.49,3.72 c-0.62-2.22-1.55-3.7-3.49-3.72c-4.12,0-5.22-0.49-5.75-0.74c-0.88-0.4-1.71,0.62-1.88,2.32c-0.02,0.22-0.03,0.42-0.03,0.64v0.52 c0,3.76,0.83,7.29,2.34,9.93L77.76,49.69L77.76,49.69z"></path> <path class="st648" d="M19.9,53.78h-1.67V51.4c-0.56,1.68-1.41,2.38-2.37,2.38c-3.14,0-4.07-3.88-4.07-8.89 c0-5.01,0.87-8.89,4.06-8.89c3.19,0,4.06,4.07,4.06,8.89L19.9,53.78L19.9,53.78L19.9,53.78z M13.43,44.91 c0,4.13,0.59,5.81,2.43,5.81s2.4-1.68,2.4-5.81s-0.57-5.81-2.41-5.81C14.01,39.09,13.44,40.77,13.43,44.91L13.43,44.91 L13.43,44.91z"></path> <path class="st648" d="M7,53.88c-1,0-1.98-0.74-2.49-2.61v7.48H2.82V36.09h1.69v2.62c0.56-1.97,1.49-2.64,2.48-2.64 c2.7,0,3.96,2.9,3.96,8.91S9.69,53.86,7,53.86L7,53.88L7,53.88z M4.51,44.99c0,4.01,0.63,5.86,2.49,5.86 c1.76,0,2.27-1.85,2.27-5.86s-0.52-5.8-2.29-5.8C5.21,39.19,4.51,41.1,4.51,44.99L4.51,44.99L4.51,44.99z"></path> <path class="st648" d="M33.97,53.88c-1,0-1.98-0.74-2.49-2.61v7.48h-1.69V36.09h1.69v2.62c0.56-1.97,1.49-2.64,2.48-2.64 c2.7,0,3.96,2.9,3.96,8.91s-1.26,8.88-3.95,8.88L33.97,53.88L33.97,53.88z M31.48,44.99c0,4.01,0.63,5.86,2.49,5.86 c1.76,0,2.27-1.85,2.27-5.86s-0.52-5.8-2.29-5.8C32.18,39.19,31.48,41.1,31.48,44.99L31.48,44.99L31.48,44.99z"></path> <path class="st648" d="M45.23,53.85v-9.94c-0.03-3.76-0.79-4.87-2.39-4.87c-1.44,0-2.36,1.21-2.36,4.65v10.16h-1.69V31.18h1.69 v7.26c0.53-1.91,1.4-2.36,2.36-2.36c3.2,0,4.08,3.91,4.08,7.65v10.14h-1.69V53.85L45.23,53.85z"></path> <path class="st648" d="M63.12,53.89c0-2.29,0.02-5.22,0.02-7.48c0-4.17-0.22-6.87-2.39-6.87c-1.83,0-2.34,2.14-2.34,5.95v8.41 h-1.69V36.09h1.69v2.84c0.63-1.94,1.47-2.36,2.34-2.36c2.25,0,4.05,2.1,4.05,7.57v9.74L63.12,53.89L63.12,53.89L63.12,53.89z"></path> <path class="st648" d="M71.83,48.37c0,0-0.01,0.02-0.01,0.04c-0.13,1.79-0.92,2.49-2.07,2.49c-1.6,0-2.27-1.44-2.4-4.4h6.38 c0.17-6.68-0.81-10.44-4.01-10.44s-4.06,4.14-4.06,8.95s0.86,8.88,4.05,8.88c2.08,0,3.29-1.39,3.84-5.51L71.83,48.37L71.83,48.37 L71.83,48.37z M69.74,39.07c1.65,0,2.27,1.55,2.34,4.59h-4.75C67.42,40.6,68.08,39.07,69.74,39.07L69.74,39.07L69.74,39.07z"></path> <path class="st648" d="M27.15,36.11l-2.32,11.35l-2.25-11.35h-1.76l3.11,15.6c-0.43,1.79-0.8,3.21-1.15,3.66 c-0.38,0.49-0.84,0.36-1.69,0.41H20.7v2.98h0.49c0.69-0.05,1.31-0.05,1.9-0.43c1.33-0.7,1.94-3.54,2.45-6.11 c1.18-5.39,2.38-11.39,3.37-16.11L27.15,36.11L27.15,36.11z"></path> </g> </g> </svg> 