<?xml version="1.0" encoding="UTF-8"?> <svg xmlns="http://www.w3.org/2000/svg" xmlns:xlink="http://www.w3.org/1999/xlink" version="1.1" id="Layer_1" x="0px" y="0px" viewBox="0 0 100 100" style="enable-background:new 0 0 100 100;" xml:space="preserve"> <style type="text/css"> .st0{display:none;fill:#309244;} .st1{display:none;fill:#931B1E;} .st2{display:none;fill:#FFFFFF;} .st3{fill:#384EA1;} .st4{fill:#FDD21C;} .st5{fill:#EA3B26;} .st6{display:none;fill:#F7F6F1;} .st7{display:none;fill:#F6F4F6;} .st8{display:none;fill:#F8F8E9;} .st9{display:none;fill:#F8F6EA;} .st10{fill:#FAD220;} .st11{fill:#E53E2D;} .st12{display:none;fill:#F7F3EF;} .st13{fill:#E23E28;} .st14{display:none;fill:#FBF3F1;} .st15{display:none;fill:#F6F7F0;} .st16{display:none;fill:#FBF5D5;} .st17{display:none;fill:#F9E8E5;} .st18{fill:#E43E28;} .st19{display:none;fill:#FAECEB;} .st20{display:none;fill:#F5F6ED;} .st21{display:none;fill:#F7F4F5;} .st22{display:none;fill:#FAEFEE;} .st23{fill:#F6D13D;} .st24{fill:#B54135;} .st25{display:none;fill:#F7F7E9;} .st26{display:none;fill:#F5F8F2;} .st27{display:none;fill:#F7EDEB;} .st28{display:none;fill:#F4F7F5;} .st29{display:none;fill:#F6F5F1;} .st30{fill:#DB452A;} .st31{fill:#DB432C;} .st32{display:none;fill:#F3F8F4;} .st33{display:none;fill:#F9F1F4;} .st34{display:none;fill:#F9EBE7;} .st35{fill:#E13F28;} .st36{display:none;fill:#F6F6F2;} .st37{fill:#DF422C;} .st38{fill:#DD432C;} .st39{display:none;fill:#F5F7F2;} .st40{display:none;fill:#F6F5DC;} .st41{display:none;fill:#F9E9E5;} .st42{display:none;fill:#F7ECEC;} .st43{display:none;fill:#F6F4E1;} .st44{fill:#E2412A;} .st45{fill:#F4D53C;} .st46{fill:#F8D138;} .st47{display:none;fill:#F3F8F3;} .st48{fill:#D94831;} .st49{display:none;fill:#F4F8F3;} .st50{display:none;fill:#F7E7E6;} .st51{display:none;fill:#F8F4D7;} .st52{display:none;fill:#F6F7F1;} .st53{fill:#F9D327;} .st54{display:none;fill:#F8F4F7;} .st55{display:none;fill:#F1F8F5;} .st56{fill:#FAD03F;} .st57{display:none;fill:#F9E5E4;} .st58{display:none;fill:#F9E5E3;} .st59{display:none;fill:#F7E2E3;} .st60{fill:#F3D23F;} .st61{display:none;fill:#F7F6EA;} .st62{display:none;fill:#F7F3F9;} .st63{display:none;fill:#F5F9F2;} .st64{display:none;fill:#F8EFD8;} .st65{display:none;fill:#F7F1D2;} .st66{fill:#CF472E;} .st67{display:none;fill:#F6F4D7;} .st68{fill:#E4422F;} .st69{display:none;fill:#F6EEED;} .st70{display:none;fill:#F5F6E0;} .st71{display:none;fill:#F8F4C4;} .st72{fill:#CB452E;} .st73{display:none;fill:#F8F4DA;} .st74{display:none;fill:#F7F5E4;} .st75{display:none;fill:#F1D5CC;} .st76{display:none;fill:#F6F5DE;} .st77{display:none;fill:#F6F4D9;} .st78{fill:#F6D43A;} .st79{fill:#CB462C;} .st80{fill:#DC4631;} .st81{display:none;fill:#F3F9EE;} .st82{fill:#E4402E;} .st83{display:none;fill:#FDF3F7;} .st84{display:none;fill:#F6E3E3;} .st85{display:none;fill:#F8F7D8;} .st86{display:none;fill:#F7E8E6;} .st87{display:none;fill:#F5F1C5;} .st88{fill:#F2D743;} .st89{display:none;fill:#F7F4E2;} .st90{fill:#D94935;} .st91{fill:#F8D141;} .st92{fill:#D33F2C;} .st93{display:none;fill:#F8ECE1;} .st94{display:none;fill:#FAE9E6;} .st95{fill:#F7CB51;} .st96{fill:#D46250;} .st97{fill:#DF422D;} .st98{fill:#F6D042;} .st99{fill:#D53B27;} .st100{display:none;fill:#F2F8F1;} .st101{display:none;fill:#F1F7F3;} .st102{display:none;fill:#F8F5D7;} .st103{display:none;fill:#F8F2DB;} .st104{display:none;fill:#F7F0F1;} .st105{display:none;fill:#FAF1F6;} .st106{display:none;fill:#F5F8F0;} .st107{display:none;fill:#F7E4DE;} .st108{display:none;fill:#F9F5D7;} .st109{display:none;fill:#F6ECEC;} .st110{fill:#F5D25D;} .st111{display:none;fill:#F8F1CC;} .st112{display:none;fill:#F8F5DF;} .st113{display:none;fill:#F4F5EE;} .st114{fill:#F5D85F;} .st115{display:none;fill:#F7E6E3;} .st116{display:none;fill:#F4F8EE;} .st117{display:none;fill:#F5F9EB;} .st118{display:none;fill:#FAF2E6;} .st119{display:none;fill:#FCF6D8;} .st120{display:none;fill:#F6F7D8;} .st121{display:none;fill:#FCF1F1;} .st122{display:none;fill:#F4F9F0;} .st123{display:none;fill:#F4F9EE;} .st124{display:none;fill:#F8E5E5;} .st125{display:none;fill:#FBE8E4;} .st126{display:none;fill:#F3F3D9;} .st127{display:none;fill:#F6F5DB;} .st128{display:none;fill:#F5EFED;} .st129{fill:#F0D649;} .st130{display:none;fill:#F7F1BD;} .st131{fill:#B8422F;} .st132{display:none;fill:#F2F7EC;} .st133{fill:#F2D757;} .st134{fill:#FDCF1F;} .st135{fill:#FDCE23;} .st136{fill:#FCCD22;} .st137{fill:#FCCB22;} .st138{fill:#FCCC22;} .st139{fill:#FDCF20;} .st140{fill:#FEC827;} .st141{fill:#FCCA24;} .st142{fill:#FCC829;} .st143{fill:#FDC72C;} .st144{fill:#FDCB26;} .st145{fill:#FAD318;} .st146{fill:#FCD02C;} .st147{fill:#FCC925;} .st148{fill:#FBC132;} .st149{fill:#FBC42D;} .st150{fill:#FDC531;} .st151{fill:#FCCA26;} .st152{fill:#FDCA27;} .st153{fill:#FAC229;} .st154{fill:#FBC827;} .st155{fill:#F7DD6F;} .st156{fill:#FCD21F;} .st157{fill:#FBC232;} .st158{fill:#FDCD24;} .st159{fill:#FECE22;} .st160{fill:#FAD215;} .st161{fill:#FAC030;} .st162{fill:#FEC42E;} .st163{fill:#F8D120;} .st164{fill:#FCCD21;} .st165{fill:#D74E27;} .st166{fill:#F8D516;} .st167{fill:#FECA2F;} .st168{fill:#FCBE31;} .st169{fill:#FCD31E;} .st170{fill:#FDC92A;} .st171{fill:#FCCC21;} .st172{fill:#F9D326;} .st173{fill:#FEBF41;} .st174{fill:#D55627;} .st175{fill:#F6C428;} .st176{fill:#FBD318;} .st177{fill:#DC4B26;} .st178{fill:#FCD02E;} .st179{fill:#DE5427;} .st180{fill:#F3D521;} .st181{fill:#FAD219;} .st182{fill:#F9D21E;} .st183{fill:#FDC72A;} .st184{fill:#F8D41B;} .st185{fill:#FDC92B;} .st186{fill:#CC5127;} .st187{fill:#C36B29;} .st188{fill:#DB5126;} .st189{fill:#B75427;} .st190{fill:#F8D523;} .st191{fill:#FAD418;} .st192{fill:#FBD21C;} .st193{fill:#FAC430;} .st194{fill:#EDB820;} .st195{fill:#F6D323;} .st196{fill:#C45428;} .st197{fill:#F9D513;} .st198{fill:#EDBB20;} .st199{fill:#FFCE3F;} .st200{fill:#CD8B2A;} .st201{fill:#F9D142;} .st202{fill:#F7D613;} .st203{fill:#F9D416;} .st204{fill:#D57327;} .st205{fill:#E05B27;} .st206{fill:#F1DB6E;} .st207{fill:#E69926;} .st208{fill:#F8CF52;} .st209{fill:#F6CD46;} .st210{fill:#F9D351;} .st211{fill:#F9D515;} .st212{fill:#FDCE1F;} .st213{fill:#FACE48;} .st214{fill:#F6D55A;} .st215{fill:#F2D752;} .st216{fill:#F3D561;} .st217{fill:#F4EB9E;} .st218{fill:#F5D340;} .st219{fill:#EA9E26;} .st220{fill:#E3B224;} .st221{fill:#F1D541;} .st222{fill:#F6D246;} .st223{fill:#F6F1C6;} .st224{fill:#B7802C;} .st225{fill:#CB5F28;} .st226{fill:#E54226;} .st227{fill:#E49C25;} .st228{fill:#BF732A;} .st229{fill:#E63F26;} .st230{fill:#E73F26;} .st231{fill:#EB3A27;} .st232{fill:#E44126;} .st233{fill:#E63E26;} .st234{fill:#E24226;} .st235{fill:#E14226;} .st236{fill:#E83F28;} .st237{fill:#DE4826;} .st238{fill:#E14326;} .st239{fill:#D94B27;} .st240{fill:#E53D2A;} .st241{fill:#DF4226;} .st242{fill:#E44426;} .st243{fill:#EA3A27;} .st244{fill:#DC4626;} .st245{fill:#E1412F;} .st246{fill:#E63E28;} .st247{fill:#E04326;} .st248{fill:#ED3B26;} .st249{fill:#E04426;} .st250{fill:#E64026;} .st251{fill:#E43D2C;} .st252{fill:#E24026;} .st253{fill:#E04526;} .st254{fill:#E34426;} .st255{fill:#EA3B28;} .st256{fill:#E34726;} .st257{fill:#E34226;} .st258{fill:#E93C2A;} .st259{fill:#DF402B;} .st260{fill:#E63D27;} .st261{fill:#E34125;} .st262{fill:#E63C2B;} .st263{fill:#E1402E;} .st264{fill:#E23F29;} .st265{fill:#FBC131;} .st266{fill:#DA4927;} .st267{fill:#D53A28;} .st268{fill:#F4AC3D;} .st269{fill:#EA3A28;} .st270{fill:#EB3A28;} .st271{fill:#E04826;} .st272{fill:#E4402F;} .st273{fill:#C74E27;} .st274{fill:#D74230;} .st275{fill:#E73C2C;} .st276{fill:#B84231;} .st277{fill:#ED3A28;} .st278{fill:#DC432C;} .st279{fill:#ED3C2A;} .st280{fill:#DB442B;} .st281{fill:#ED3A2B;} .st282{fill:#E24327;} .st283{fill:#EE3B24;} .st284{fill:#E04128;} .st285{fill:#ED3B28;} .st286{fill:#EB3B28;} .st287{fill:#CF4C27;} .st288{fill:#E73E2A;} .st289{fill:#EB3B2A;} .st290{fill:#EB3A2A;} .st291{fill:#F5A640;} .st292{fill:#BC5727;} .st293{fill:#ED3A2C;} .st294{fill:#C64E27;} .st295{fill:#C14627;} .st296{fill:#D9432C;} .st297{fill:#DC402B;} .st298{fill:#BD4B27;} .st299{fill:#BD5127;} .st300{fill:#E53F26;} .st301{fill:#E43E26;} .st302{fill:#C44B27;} .st303{fill:#C14F27;} .st304{fill:#BE4F27;} .st305{fill:#DA432D;} .st306{fill:#EB3A29;} .st307{fill:#D04928;} .st308{fill:#C14A27;} .st309{fill:#ED3A2A;} .st310{fill:#E93B29;} .st311{fill:#EB3C2D;} .st312{fill:#E93C30;} .st313{fill:#E43F26;} .st314{fill:#ED3928;} .st315{fill:#EE3B29;} .st316{fill:#EA392D;} .st317{fill:#C45127;} .st318{fill:#E0402A;} .st319{fill:#EB3A2B;} .st320{fill:#F7AC46;} .st321{fill:#C25628;} .st322{fill:#F3753E;} .st323{fill:#D33B27;} .st324{fill:#D9452E;} .st325{fill:#C64F28;} .st326{fill:#C45528;} .st327{fill:#D74133;} .st328{fill:#C75128;} .st329{fill:#D95128;} .st330{fill:#E83A2C;} .st331{fill:#DD4326;} .st332{fill:#EE3A2C;} .st333{fill:#F37345;} .st334{fill:#BD5827;} .st335{fill:#F1AB35;} .st336{fill:#BA5827;} .st337{fill:#F3AB3B;} .st338{fill:#D74333;} .st339{fill:#EB3829;} .st340{fill:#E03F2C;} .st341{fill:#EA9D3D;} .st342{fill:#C74F27;} .st343{fill:#CD4C28;} .st344{fill:#E33F26;} .st345{fill:#C94627;} .st346{fill:#EE382D;} .st347{fill:#EB392C;} .st348{fill:#EE392B;} .st349{fill:#C74927;} .st350{fill:#E73C30;} .st351{fill:#BC5E28;} .st352{fill:#EC3A29;} .st353{fill:#EB3B29;} .st354{fill:#F9A257;} .st355{fill:#FCB550;} .st356{fill:#D64927;} .st357{fill:#F15A3B;} .st358{fill:#ED3929;} .st359{fill:#D24327;} .st360{fill:#E53F31;} .st361{fill:#F47F55;} .st362{fill:#C14527;} .st363{fill:#D84427;} .st364{fill:#F36E46;} .st365{fill:#BF4627;} .st366{fill:#DD422C;} .st367{fill:#C06C29;} .st368{fill:#F2A74B;} .st369{fill:#F68C50;} .st370{fill:#E13F26;} .st371{fill:#ED392D;} .st372{fill:#E9392E;} .st373{fill:#EA3D2A;} .st374{fill:#CD3B27;} .st375{fill:#EF392A;} .st376{fill:#E24031;} .st377{fill:#EE392F;} .st378{fill:#EF3930;} .st379{fill:#F1722A;} .st380{fill:#F58F33;} .st381{fill:#F26744;} .st382{fill:#DE462F;} .st383{fill:#F26B48;} .st384{fill:#EF452E;} .st385{fill:#B95A27;} .st386{fill:#F7965A;} .st387{fill:#F4784E;} .st388{fill:#DB4939;} .st389{fill:#F47D44;} .st390{fill:#FAA53E;} .st391{fill:#B74627;} .st392{fill:#EA3A2D;} .st393{fill:#E03D2E;} .st394{fill:#CD3A2B;} .st395{display:none;fill:#F6F4EA;} .st396{display:none;fill:#F4F4C3;} .st397{display:none;fill:#F6EDBC;} .st398{fill:#F3EBA2;} .st399{fill:#CD4B30;} .st400{fill:#EC3B25;} .st401{fill:#BB472A;} .st402{fill:#DA4331;} .st403{display:none;fill:#F6F6F6;} .st404{fill:#FCC52E;} .st405{fill:#F7B631;} .st406{fill:#BB6628;} .st407{fill:#EDBD1F;} .st408{fill:#C78B2B;} .st409{fill:#D16A2D;} .st410{fill:#D7792B;} .st411{fill:#FABF31;} .st412{fill:#E14B27;} .st413{fill:#D65627;} .st414{fill:#C05928;} .st415{fill:#B56528;} .st416{fill:#D23B27;} .st417{fill:#CE6329;} .st418{fill:#D85427;} .st419{fill:#C68F2C;} .st420{fill:#D18E2A;} .st421{fill:#C47A2A;} .st422{fill:#D94F27;} .st423{fill:#FCC331;} .st424{fill:#FEC234;} .st425{fill:#E29E26;} .st426{fill:#C35127;} .st427{fill:#FDBB4B;} .st428{fill:#BD7429;} .st429{fill:#B75527;} .st430{fill:#D0672A;} .st431{fill:#CF5228;} .st432{fill:#FCB939;} .st433{fill:#B45C27;} .st434{fill:#D66627;} .st435{fill:#D24C27;} .st436{fill:#CB4927;} .st437{fill:#DE8827;} .st438{fill:#EFB91E;} .st439{fill:#FCB73D;} .st440{fill:#F6B638;} .st441{fill:#C86028;} .st442{fill:#B26027;} .st443{fill:#BC5527;} .st444{fill:#CF5828;} .st445{fill:#D25027;} .st446{fill:#F8B239;} .st447{fill:#C65929;} .st448{fill:#DA7427;} .st449{fill:#FBC22E;} .st450{fill:#D05929;} .st451{fill:#E9B321;} .st452{fill:#F9BA35;} .st453{fill:#D34E27;} .st454{fill:#E65A25;} .st455{fill:#D03B27;} .st456{fill:#DD4B27;} .st457{fill:#CB5028;} .st458{fill:#F9A24B;} .st459{fill:#F9A14B;} .st460{fill:#BF5127;} .st461{fill:#FCB44D;} .st462{fill:#FFC62D;} .st463{fill:#D26628;} .st464{fill:#DB4526;} .st465{fill:#FDBC3E;} .st466{fill:#BE5527;} .st467{fill:#C54C27;} .st468{fill:#C68D2C;} .st469{fill:#BE5A27;} .st470{fill:#B35D27;} .st471{fill:#BC7F2B;} .st472{fill:#F5AE3A;} .st473{fill:#D45427;} .st474{fill:#D94727;} .st475{fill:#BF6028;} .st476{fill:#BD4C27;} .st477{fill:#FFC734;} .st478{fill:#FCC42E;} .st479{fill:#F4D147;} .st480{fill:#BF5928;} .st481{fill:#DD4D26;} .st482{fill:#BE4527;} .st483{fill:#E04626;} .st484{fill:#FBBE33;} .st485{fill:#C24C27;} .st486{fill:#D84627;} .st487{fill:#A95526;} .st488{fill:#FABE33;} .st489{fill:#D7632A;} .st490{fill:#BC6628;} .st491{fill:#B65D27;} .st492{fill:#D35E28;} .st493{fill:#FBB13D;} .st494{fill:#D94D27;} .st495{fill:#C75027;} .st496{fill:#E05027;} .st497{fill:#D05327;} .st498{fill:#FABE2F;} .st499{fill:#F2B12C;} .st500{fill:#FCB840;} .st501{fill:#FFC737;} .st502{fill:#D98E28;} .st503{fill:#D63B27;} .st504{fill:#FDBA47;} .st505{fill:#D65428;} .st506{fill:#B86B29;} .st507{fill:#C87428;} .st508{fill:#D25427;} .st509{fill:#FABE34;} .st510{fill:#C54E27;} .st511{fill:#C94827;} .st512{fill:#FBAE5B;} .st513{fill:#C24F27;} .st514{fill:#BB732A;} .st515{fill:#D39E2A;} .st516{fill:#BA5127;} .st517{fill:#D34A27;} .st518{fill:#C64B27;} .st519{fill:#E59D25;} .st520{fill:#E24526;} .st521{fill:#BD4627;} .st522{fill:#E93A26;} .st523{fill:#D95427;} .st524{fill:#BC6E28;} .st525{fill:#B95C27;} .st526{fill:#EF3A2B;} .st527{fill:#D13D27;} .st528{fill:#CC4727;} .st529{fill:#C64927;} .st530{fill:#F9A558;} .st531{fill:#EF6B29;} .st532{fill:#EB9E3E;} .st533{fill:#CD4627;} .st534{fill:#B74D26;} .st535{fill:#F39747;} .st536{fill:#F89E5F;} .st537{fill:#E99736;} .st538{fill:#D83927;} .st539{fill:#C05528;} .st540{fill:#FCB649;} .st541{fill:#EC9238;} .st542{fill:#D83627;} .st543{fill:#DD6729;} .st544{fill:#F68E51;} .st545{fill:#D64127;} .st546{fill:#BA4E27;} .st547{fill:#ED9C42;} .st548{fill:#D43E27;} .st549{fill:#DA4327;} .st550{fill:#BC5627;} .st551{fill:#F0A437;} .st552{fill:#B95C28;} .st553{fill:#F2A834;} .st554{fill:#BF5027;} .st555{fill:#FCB545;} .st556{fill:#F79642;} .st557{fill:#F26A3C;} .st558{fill:#EF4731;} .st559{fill:#F9A742;} .st560{fill:#F8B835;} .st561{fill:#B95327;} .st562{fill:#BF5628;} .st563{fill:#C66A29;} .st564{fill:#BF5227;} .st565{fill:#D94927;} .st566{fill:#BD5C28;} .st567{fill:#CF3A27;} .st568{fill:#F27B44;} .st569{fill:#FBAF49;} .st570{fill:#F29546;} .st571{fill:#FCB63F;} .st572{fill:#CF3927;} .st573{fill:#BA5927;} .st574{fill:#D33827;} .st575{fill:#BB5327;} .st576{fill:#F5A63B;} .st577{fill:#D33A27;} .st578{fill:#D87232;} .st579{fill:#F4753B;} .st580{fill:#FAA958;} .st581{fill:#F4B138;} .st582{fill:#F9A35E;} .st583{fill:#F2AD2F;} .st584{fill:#F47839;} .st585{fill:#EC993B;} .st586{fill:#FAA74D;} .st587{fill:#F9A04D;} .st588{fill:#F7955A;} .st589{fill:#F89C4C;} .st590{fill:#E55825;} .st591{fill:#E75825;} .st592{fill:#D55128;} .st593{fill:#F7924C;} .st594{fill:#F68D49;} .st595{fill:#F89951;} .st596{fill:#CB4B27;} .st597{fill:#CD5928;} .st598{fill:#BF5727;} .st599{fill:#EF9D44;} .st600{fill:#BC5227;} .st601{fill:#FAB536;} .st602{fill:#F5B221;} .st603{fill:#CD4527;} .st604{fill:#BF5828;} .st605{fill:#F89E57;} .st606{opacity:0.999;fill-rule:evenodd;clip-rule:evenodd;fill:#0A79BD;enable-background:new ;} .st607{fill-rule:evenodd;clip-rule:evenodd;fill:#FFFFFF;} .st608{fill-rule:evenodd;clip-rule:evenodd;fill:#BCDCEC;} .st609{fill-rule:evenodd;clip-rule:evenodd;fill:#56A6D4;} .st610{fill-rule:evenodd;clip-rule:evenodd;fill:#0779BE;} .st611{opacity:0.992;fill-rule:evenodd;clip-rule:evenodd;fill:#201E1F;enable-background:new ;} .st612{opacity:0.994;fill-rule:evenodd;clip-rule:evenodd;fill:#201E1F;enable-background:new ;} .st613{opacity:0.993;fill-rule:evenodd;clip-rule:evenodd;fill:#201E1F;enable-background:new ;} .st614{opacity:0.99;fill-rule:evenodd;clip-rule:evenodd;fill:#201E1F;enable-background:new ;} .st615{opacity:0.996;fill-rule:evenodd;clip-rule:evenodd;fill:#201E1F;enable-background:new ;} .st616{opacity:0.986;fill-rule:evenodd;clip-rule:evenodd;fill:#201E1F;enable-background:new ;} .st617{opacity:0.991;fill-rule:evenodd;clip-rule:evenodd;fill:#201E1F;enable-background:new ;} .st618{opacity:0.989;fill-rule:evenodd;clip-rule:evenodd;fill:#201E1F;enable-background:new ;} .st619{opacity:0.966;fill-rule:evenodd;clip-rule:evenodd;fill:#201E1F;enable-background:new ;} .st620{opacity:0.988;fill-rule:evenodd;clip-rule:evenodd;fill:#201E1F;enable-background:new ;} .st621{opacity:0.987;fill-rule:evenodd;clip-rule:evenodd;fill:#201E1F;enable-background:new ;} .st622{opacity:0.959;fill-rule:evenodd;clip-rule:evenodd;fill:#201E1F;enable-background:new ;} .st623{fill-rule:evenodd;clip-rule:evenodd;fill:#336CB5;} .st624{fill-rule:evenodd;clip-rule:evenodd;fill:#346BB4;} .st625{fill-rule:evenodd;clip-rule:evenodd;fill:#8EC2E9;} .st626{fill-rule:evenodd;clip-rule:evenodd;fill:#FDFEFF;} .st627{fill:#FEDC00;} .st628{fill:#1A2E55;} .st629{fill-rule:evenodd;clip-rule:evenodd;fill:#D11970;} .st630{fill:#FFFFFF;} .st631{fill:#0377B7;} .st632{fill:#046A37;} .st633{fill:#77BD43;} </style> <g> <path class="st632" d="M28.5,46.74h-0.03c-0.27,0.6-0.83,1.3-1.8,1.3c-1.46,0-2.01-1.27-1.44-4.54c0.48-2.73,1.14-4.69,2.92-4.69 c0.6,0,1.22,0.24,1.41,1.18h0.03l0.66-3.76h2.17L30.4,47.81h-2.09L28.5,46.74z M28.73,40.72c-0.79,0-1.02,1.05-1.29,2.64 c-0.25,1.41-0.46,2.76,0.36,2.76c0.64,0,0.94-0.94,1.24-2.64C29.31,41.92,29.46,40.72,28.73,40.72"></path> <path class="st632" d="M37.23,47.81h-2.09l0.18-1.04H35.3c-0.44,0.78-1.16,1.26-1.96,1.26c-1.23,0-1.76-0.75-1.46-2.43l1.15-6.57 h2.17l-1.05,5.99c-0.11,0.63,0.05,1.01,0.45,1.01c0.42,0,0.85-0.39,1-1.25l1.01-5.74h2.17L37.23,47.81z"></path> <path class="st632" d="M40.35,36.23h2.17l-0.66,3.76h0.03c0.53-0.94,1.23-1.18,1.83-1.18c1.78,0,1.76,1.96,1.28,4.69 c-0.58,3.28-1.57,4.54-3.03,4.54c-0.96,0-1.28-0.7-1.34-1.3H40.6l-0.19,1.07h-2.09L40.35,36.23z M41.52,46.12 c0.82,0,1.08-1.35,1.33-2.76c0.28-1.59,0.42-2.64-0.37-2.64c-0.74,0-1,1.2-1.27,2.76C40.91,45.18,40.88,46.12,41.52,46.12"></path> <path class="st632" d="M14.75,39.02h2.09l-0.22,1.23h0.03c0.42-0.78,1.09-1.46,2-1.46c0.11,0,0.21,0,0.34,0.03l-0.43,2.47 c-0.21-0.05-0.38-0.07-0.59-0.07c-0.87,0-1.51,0.44-1.71,1.59l-0.87,4.98h-2.17L14.75,39.02z"></path> <path class="st632" d="M18.6,43.42c0.46-2.62,1.29-4.63,3.79-4.63c2.65,0,2.64,1.96,2.18,4.58C24.11,46,23.28,48,20.78,48 C18.13,48,18.14,46.04,18.6,43.42 M22.11,40.51c-0.64,0-0.96,0.76-1.33,2.88c-0.38,2.14-0.32,2.9,0.32,2.9 c0.67,0,0.93-0.73,1.31-2.88C22.78,41.24,22.77,40.51,22.11,40.51"></path> <path class="st632" d="M8.27,36.22h3.48c2.37,0,2.46,2.08,2.21,3.52c-0.36,2.07-1.44,3.53-3.69,3.53H9.28L8.49,47.8H6.24 L8.27,36.22z M9.63,41.26h0.62c0.9,0,1.23-0.68,1.37-1.46c0.16-0.89,0.04-1.57-0.88-1.57h-0.57L9.63,41.26z"></path> <path class="st632" d="M65.48,43.42c0.46-2.62,1.29-4.63,3.79-4.63c2.65,0,2.64,1.96,2.18,4.58C70.99,46,70.16,48,67.65,48 C65.01,48,65.02,46.04,65.48,43.42 M68.98,40.51c-0.64,0-0.96,0.76-1.33,2.88c-0.38,2.14-0.32,2.9,0.32,2.9 c0.67,0,0.93-0.73,1.31-2.88C69.66,41.24,69.65,40.51,68.98,40.51"></path> <path class="st632" d="M57.15,38.79c-0.8,0-1.52,0.49-1.97,1.27h-0.03l0.18-1.04h-2.09L51.7,47.8h2.17l1.01-5.75 c0.15-0.86,0.58-1.25,1-1.25c0.4,0,0.57,0.38,0.45,1.01l-1.05,5.99h2.17l1.16-6.58C58.91,39.53,58.38,38.79,57.15,38.79"></path> <path class="st632" d="M49.59,38.81c-0.9,0-1.54,0.15-2.12,0.57c-0.58,0.42-1.01,1.15-1.23,2.35h1.93c0.15-0.76,0.4-1.2,1-1.2 c0.48,0,0.62,0.34,0.53,0.88c-0.12,0.66-0.26,0.8-0.95,1.01c-0.64,0.19-1.47,0.36-2.07,0.71c-0.6,0.36-1.1,1.22-1.28,2.24 c-0.33,1.9,0.24,2.68,1.46,2.68c0.72,0,1.49-0.46,1.92-1.23h0.03c-0.05,0.34-0.08,0.7-0.06,1.01h2.09 c-0.19-0.39-0.04-1.23,0.08-1.9l0.79-4.51C52.03,39.56,51.37,38.81,49.59,38.81 M49.05,45.02c-0.15,0.88-0.63,1.2-1.08,1.2 c-0.4,0-0.55-0.42-0.43-1.12c0.08-0.49,0.24-0.76,0.5-0.97c0.24-0.19,0.54-0.21,1.29-0.65C49.27,43.84,49.18,44.3,49.05,45.02"></path> <path class="st632" d="M63.06,42.33c0.23-1.28,0.08-1.82-0.5-1.82c-0.72,0-1.01,1.1-1.33,2.9c-0.35,1.98-0.41,2.88,0.31,2.88 c0.64,0,0.88-0.53,1.18-2.07h2.01c-0.49,2.71-1.56,3.79-3.53,3.79c-2.73,0-2.54-2.32-2.08-4.93c0.43-2.47,1.34-4.3,3.7-4.3 c2.27,0,2.61,1.44,2.24,3.53L63.06,42.33L63.06,42.33z"></path> <path class="st632" d="M6.37,53.19h0.44L6.74,53.6c-0.08,0.44-0.37,0.65-0.53,0.65c-0.39,0-0.35-0.61-0.18-1.58 c0.17-1.01,0.38-1.41,0.71-1.41c0.27,0,0.32,0.38,0.26,0.68h0.64c0.14-0.82-0.07-1.28-0.81-1.28c-0.86,0-1.24,0.7-1.48,2.05 c-0.24,1.4-0.21,2.14,0.61,2.14c0.31,0,0.57-0.14,0.78-0.45h0.01l-0.06,0.38h0.49l0.38-2.18H6.47L6.37,53.19z M9.42,51.66 c-0.04-0.01-0.08-0.01-0.12-0.01c-0.27,0-0.48,0.19-0.66,0.48H8.63l0.07-0.4H8.08l-0.53,3.04h0.65l0.32-1.83 c0.07-0.41,0.35-0.55,0.57-0.55c0.07,0,0.13,0.01,0.2,0.01L9.42,51.66z M10.94,51.73l-0.35,2.02c-0.06,0.34-0.21,0.5-0.43,0.5 c-0.19,0-0.25-0.12-0.2-0.42l0.37-2.1H9.68l-0.4,2.26c-0.1,0.6,0.09,0.87,0.49,0.87c0.27,0,0.53-0.14,0.72-0.44h0.01l-0.06,0.36 h0.62l0.53-3.04H10.94z M13.23,51.65c-0.25,0-0.45,0.12-0.64,0.4h-0.01l0.06-0.32h-0.62l-0.71,4.04h0.64l0.22-1.28h0.01 c0.09,0.24,0.23,0.36,0.47,0.36c0.53,0,0.86-0.47,1.05-1.6C13.91,52.12,13.75,51.65,13.23,51.65 M13.07,53.25 c-0.12,0.66-0.23,1-0.51,1c-0.29,0-0.28-0.34-0.16-1c0.12-0.66,0.23-1,0.52-1C13.19,52.25,13.19,52.59,13.07,53.25 M15.27,51.65 c-0.74,0-1.09,0.56-1.27,1.6c-0.19,1.06-0.07,1.62,0.71,1.6c0.74,0,1.09-0.56,1.27-1.6C16.17,52.19,16.05,51.63,15.27,51.65 M15.34,53.25c-0.13,0.76-0.27,1.07-0.53,1.07c-0.32,0-0.27-0.45-0.16-1.07c0.11-0.62,0.22-1.07,0.53-1.07 C15.44,52.18,15.47,52.49,15.34,53.25 M19.14,50.73h-1.18l-0.71,4.04h0.67l0.28-1.61h0.36c0.63,0,1.13-0.38,1.27-1.21 C19.95,51.34,19.82,50.73,19.14,50.73 M19.13,52c-0.07,0.41-0.29,0.61-0.55,0.61h-0.3l0.22-1.23h0.28 C19.11,51.38,19.2,51.61,19.13,52 M21.47,51.66c-0.04-0.01-0.08-0.01-0.12-0.01c-0.27,0-0.48,0.19-0.66,0.48h-0.01l0.07-0.4h-0.62 l-0.53,3.04h0.65l0.32-1.83c0.07-0.41,0.35-0.55,0.57-0.55c0.07,0,0.14,0.01,0.2,0.01L21.47,51.66z M22.61,51.65 c-0.74,0-1.09,0.56-1.27,1.6c-0.19,1.06-0.07,1.62,0.71,1.6c0.74,0,1.09-0.56,1.27-1.6C23.51,52.19,23.39,51.63,22.61,51.65 M22.68,53.25c-0.13,0.76-0.27,1.07-0.53,1.07c-0.32,0-0.27-0.45-0.16-1.07c0.11-0.62,0.22-1.07,0.53-1.07 C22.78,52.18,22.81,52.49,22.68,53.25 M26.43,51.65c-0.3,0-0.57,0.16-0.72,0.48H25.7c-0.02-0.31-0.2-0.48-0.49-0.48 c-0.27,0-0.49,0.11-0.7,0.39H24.5l0.06-0.31h-0.62l-0.53,3.04h0.64l0.35-2c0.06-0.35,0.22-0.52,0.43-0.52 c0.18,0,0.23,0.15,0.18,0.4l-0.37,2.13h0.64l0.35-2c0.06-0.35,0.22-0.52,0.43-0.52c0.18,0,0.23,0.15,0.18,0.4l-0.37,2.13h0.64 l0.39-2.21C27,51.97,26.86,51.65,26.43,51.65 M28.39,51.65c-0.87,0-1.13,0.76-1.28,1.57c-0.13,0.76-0.25,1.63,0.69,1.63 c0.6,0,0.95-0.4,1.1-1.11h-0.58c-0.1,0.38-0.23,0.57-0.44,0.57c-0.24,0-0.26-0.35-0.19-0.71l0.04-0.24h1.28l0.03-0.17 C29.21,52.26,29.15,51.65,28.39,51.65 M28.48,52.9h-0.66l0.02-0.12c0.05-0.28,0.18-0.6,0.44-0.6 C28.54,52.18,28.54,52.44,28.48,52.9 M30.97,51.66c-0.04-0.01-0.08-0.01-0.11-0.01c-0.27,0-0.48,0.19-0.67,0.48h-0.01l0.07-0.4 h-0.62l-0.53,3.04h0.64l0.32-1.83c0.07-0.41,0.35-0.55,0.57-0.55c0.07,0,0.13,0.01,0.2,0.01L30.97,51.66z M32.04,50.69H31.4 l-0.12,0.67h0.64L32.04,50.69z M30.68,54.77h0.65l0.54-3.04h-0.65L30.68,54.77z M33.95,52.82c0.13-0.71-0.1-1.17-0.7-1.17 c-0.59,0-1.08,0.35-1.3,1.6c-0.22,1.22,0.04,1.6,0.68,1.6c0.68,0,1.04-0.45,1.17-1.25h-0.61c-0.09,0.49-0.22,0.71-0.44,0.71 c-0.29,0-0.29-0.31-0.16-1.06c0.12-0.7,0.23-1.04,0.55-1.04c0.24,0,0.24,0.32,0.18,0.61H33.95z M35.36,51.65 c-0.48,0-0.92,0.24-1.05,0.94l-0.01,0.07h0.58l0.01-0.08c0.04-0.24,0.17-0.4,0.37-0.4c0.21,0,0.28,0.14,0.23,0.37 c-0.03,0.2-0.12,0.29-0.32,0.35l-0.38,0.12c-0.47,0.15-0.7,0.38-0.8,0.95c-0.07,0.41,0.01,0.87,0.45,0.87 c0.31,0,0.51-0.08,0.71-0.4h0.01c0,0.1,0,0.22,0.02,0.32h0.62c-0.04-0.18-0.02-0.31,0.03-0.59l0.28-1.6 C36.21,52.03,36.13,51.65,35.36,51.65 M35.27,53.85c-0.06,0.33-0.31,0.47-0.48,0.47c-0.17,0-0.21-0.19-0.17-0.42 c0.05-0.27,0.18-0.42,0.45-0.49c0.08-0.02,0.2-0.08,0.3-0.16L35.27,53.85z"></path> <path class="st633" d="M88.09,35.41c-3.59,4.26-6.79,8.97-9.66,13.95l0,0c5.13-5.39,10.7-10.16,16.7-14.02v-0.01 C92.78,35.23,90.44,35.25,88.09,35.41"></path> <path class="st632" d="M76.33,52.18L76.33,52.18c3.11-6.19,6.72-12.02,10.91-17.2c-0.51-1.58-1.55-4.75-1.55-4.75 c-1.42,1.94-2.67,4.04-3.83,6.22c-2.23,0.62-4.43,1.4-6.57,2.41c0,0,2.71,2.23,4.04,3.37C78.2,45.38,76.43,51.79,76.33,52.18 M91.16,51.28L91.16,51.28c-0.76-3.44-1.52-6.89-2.26-10.34c-1.85,1.45-3.66,2.96-5.42,4.55C86.06,47.37,88.62,49.3,91.16,51.28"></path> </g> </svg> 