<?xml version="1.0" standalone="no"?>
<!DOCTYPE svg PUBLIC "-//W3C//DTD SVG 20010904//EN"
 "http://www.w3.org/TR/2001/REC-SVG-20010904/DTD/svg10.dtd">
<svg version="1.0" xmlns="http://www.w3.org/2000/svg"
 width="648.000000pt" height="528.000000pt" viewBox="0 0 648.000000 528.000000"
 preserveAspectRatio="xMidYMid meet">

<g transform="translate(0.000000,528.000000) scale(0.100000,-0.100000)"
fill="#000000" stroke="none">
<path fill="#743D95" d="M2270 4503 c-8 -3 -23 -12 -32 -21 -17 -14 -18 -67 -18 -842 l0 -826
28 -26 c39 -37 898 -658 934 -675 59 -30 82 -16 535 312 235 171 449 327 475
348 l48 37 0 829 0 828 -21 19 c-20 18 -52 19 -978 21 -526 1 -963 -1 -971 -4z
m1720 -140 c-1 -5 -17 -20 -38 -34 -20 -14 -101 -72 -179 -128 l-141 -102 -54
27 c-138 70 -285 72 -418 4 -25 -13 -78 -47 -118 -77 -48 -35 -77 -51 -86 -46
-38 22 -485 349 -486 356 0 4 342 7 760 7 418 0 760 -3 760 -7z m-1337 -313
c103 -74 187 -137 186 -140 0 -3 -53 -44 -119 -92 -145 -106 -173 -143 -178
-237 -4 -75 9 -117 53 -169 56 -67 169 -98 250 -70 22 8 115 69 207 136 112
81 176 122 193 122 18 0 144 -85 408 -276 210 -152 394 -290 410 -305 64 -68
-1 -183 -85 -150 -13 5 -113 75 -223 155 -209 152 -237 165 -277 129 -25 -22
-23 -65 5 -90 12 -11 104 -79 203 -151 100 -73 185 -139 188 -148 28 -72 -52
-157 -117 -123 -12 7 -124 85 -249 175 -150 109 -235 164 -251 164 -45 0 -78
-51 -58 -89 6 -11 98 -83 204 -160 204 -147 227 -172 208 -223 -13 -34 -58
-68 -90 -68 -19 0 -97 51 -262 170 -128 94 -244 173 -257 177 -13 3 -33 -2
-48 -12 -21 -13 -25 -23 -22 -53 3 -35 11 -42 193 -174 105 -76 198 -148 208
-159 26 -33 22 -76 -13 -110 -57 -57 -56 -58 -531 286 l-428 310 0 693 -1 694
54 -39 c29 -21 137 -99 239 -173z m1443 -867 c-2 -2 -185 127 -406 288 -355
258 -406 292 -440 293 -43 1 -42 1 -305 -188 -138 -100 -152 -108 -185 -102
-68 11 -104 94 -62 145 24 30 488 366 540 392 95 47 226 32 315 -36 27 -21 57
-35 74 -35 21 0 87 43 248 160 l220 160 3 -536 c1 -296 0 -539 -2 -541z"/>
<path fill="#743D95" d="M3754 1781 c-46 -28 -64 -59 -64 -112 0 -125 139 -182 227 -94 29 29
33 39 33 88 0 40 -5 61 -21 81 -44 56 -118 72 -175 37z"/>
<path fill="#743D95" d="M785 1659 c-3 -8 -4 -210 -3 -449 l3 -435 120 0 120 0 3 133 3 132
54 0 55 0 90 -135 90 -135 130 0 c76 0 131 4 135 10 3 6 -37 74 -90 151 -53
77 -95 144 -93 149 2 5 26 24 53 43 37 25 59 50 83 98 33 61 34 68 30 155 -3
81 -7 98 -34 140 -37 60 -99 108 -167 130 -72 23 -574 34 -582 13z m485 -224
c37 -19 50 -43 50 -90 0 -82 -42 -105 -190 -105 l-100 0 0 105 0 105 105 0
c75 0 115 -4 135 -15z"/>
<path fill="#743D95" d="M4145 1658 c-3 -7 -6 -53 -7 -103 l-3 -90 -48 -3 -48 -3 3 -102 3
-102 45 -5 45 -5 5 -185 c5 -203 12 -229 73 -274 25 -18 42 -21 140 -21 154 0
157 2 157 110 l0 84 -52 3 c-72 4 -79 20 -76 168 l3 115 63 3 62 3 0 104 0
104 -62 3 -63 3 -5 100 -5 100 -113 3 c-84 2 -114 -1 -117 -10z"/>
<path fill="#743D95" d="M4645 1658 c-3 -7 -4 -209 -3 -448 l3 -435 120 0 120 0 0 445 0 445
-118 3 c-88 2 -119 -1 -122 -10z"/>
<path fill="#743D95" d="M1903 1470 c-221 -47 -339 -312 -233 -527 58 -117 153 -175 296 -181
107 -5 175 11 246 58 43 29 108 112 108 138 0 8 -32 12 -104 12 -89 0 -110 -3
-141 -22 -43 -25 -108 -27 -152 -5 -39 21 -54 39 -56 74 l-2 28 235 5 235 5
-3 75 c-8 163 -99 293 -232 330 -54 15 -150 20 -197 10z m179 -199 c17 -19 28
-43 28 -61 l0 -30 -120 0 c-114 0 -120 1 -120 20 0 33 28 78 58 95 18 10 44
14 76 11 41 -3 55 -9 78 -35z"/>
<path fill="#743D95" d="M2820 1471 c-42 -14 -84 -38 -104 -60 -26 -29 -34 -26 -38 12 l-3 32
-123 3 -122 3 2 -343 3 -343 120 0 120 0 5 218 5 219 28 24 c30 26 75 31 109
13 40 -22 48 -66 48 -279 l0 -200 120 0 120 0 0 199 c0 115 4 211 11 229 20
59 103 83 147 42 34 -32 42 -84 42 -283 l0 -188 118 3 117 3 3 244 c3 281 -5
325 -65 391 -45 51 -120 75 -200 66 -72 -8 -112 -26 -161 -71 l-41 -36 -17 26
c-39 59 -171 100 -244 76z"/>
<path fill="#743D95" d="M3700 1115 l0 -345 120 0 120 0 0 345 0 345 -120 0 -120 0 0 -345z"/>
<path fill="#743D95" d="M5040 1215 c0 -275 8 -330 53 -381 50 -57 98 -77 181 -72 60 3 80 8
122 36 28 17 56 32 62 32 8 0 12 -20 12 -54 0 -90 -61 -143 -152 -133 -26 3
-50 3 -52 -2 -3 -4 -8 -54 -12 -110 l-7 -104 114 5 c98 4 123 8 177 33 40 18
77 44 102 72 69 78 70 88 70 530 l0 393 -120 0 -120 0 0 -205 c0 -159 -3 -212
-14 -234 -14 -26 -53 -51 -81 -51 -28 0 -67 25 -81 51 -11 22 -14 75 -14 234
l0 205 -120 0 -120 0 0 -245z"/>
</g>
</svg>
