<?xml version="1.0" standalone="no"?>
<!DOCTYPE svg PUBLIC "-//W3C//DTD SVG 20010904//EN"
 "http://www.w3.org/TR/2001/REC-SVG-20010904/DTD/svg10.dtd">
<svg version="1.0" xmlns="http://www.w3.org/2000/svg"
 width="1280.000000pt" height="720.000000pt" viewBox="0 0 1280.000000 720.000000"
 preserveAspectRatio="xMidYMid meet">

<g transform="translate(0.000000,720.000000) scale(0.100000,-0.100000)"
fill="#1A1F71" stroke="none">
<path fill="#1A1F71" d="M8185 5640 c-347 -20 -692 -119 -939 -270 -307 -187 -498 -433 -588
-757 -19 -67 -22 -104 -22 -268 l-1 -190 34 -99 c38 -110 117 -242 200 -337
135 -152 327 -286 650 -453 259 -134 368 -204 444 -285 67 -73 91 -135 85
-224 -8 -123 -84 -221 -223 -287 -146 -70 -304 -92 -562 -79 -267 14 -486 69
-757 190 -61 27 -113 46 -116 42 -6 -6 -176 -789 -183 -842 -6 -43 441 -159
763 -197 176 -21 557 -24 705 -5 838 106 1360 536 1436 1182 51 438 -114 763
-526 1038 -94 63 -147 93 -495 281 -299 161 -399 261 -400 398 0 138 127 260
327 313 55 15 122 23 228 26 286 10 556 -43 867 -172 11 -4 18 -1 22 12 8 28
165 765 168 792 3 21 -5 26 -82 53 -118 40 -341 94 -468 113 -93 14 -381 37
-422 33 -8 0 -73 -4 -145 -8z"/>
<path fill="#1A1F71" d="M97 5563 c-3 -5 -8 -29 -12 -55 -7 -46 -6 -47 21 -54 380 -88 669
-183 900 -294 161 -78 224 -130 267 -222 17 -35 189 -683 449 -1687 l422
-1631 540 2 540 3 783 1865 c430 1026 803 1913 827 1973 l45 107 -537 0 -537
0 -530 -1341 c-409 -1034 -531 -1335 -537 -1317 -4 13 -102 529 -218 1148
-116 619 -218 1148 -227 1175 -47 152 -163 270 -312 315 -61 19 -97 20 -971
20 -500 0 -911 -3 -913 -7z"/>
<path fill="#1A1F71" d="M5320 5566 c0 -2 -189 -886 -420 -1965 -231 -1079 -420 -1966 -420
-1971 0 -6 194 -10 510 -10 281 0 510 3 510 6 0 4 189 889 420 1969 231 1079
420 1965 420 1968 0 4 -229 7 -510 7 -280 0 -510 -2 -510 -4z"/>
<path fill="#1A1F71" d="M10888 5547 c-109 -37 -188 -100 -251 -199 -11 -18 -1415 -3351
-1564 -3716 -4 -10 103 -12 532 -10 l538 3 106 292 106 293 656 0 c516 0 658
-3 661 -12 3 -7 32 -140 64 -295 l59 -283 472 0 c260 0 473 1 473 3 -1 1 -186
889 -413 1972 l-413 1970 -479 2 c-477 3 -480 2 -547 -20z m456 -1772 c81
-390 150 -720 153 -732 l5 -23 -427 0 c-235 0 -425 4 -423 9 2 4 122 337 268
739 146 402 268 728 271 724 3 -4 72 -326 153 -717z"/>
</g>
</svg>
